<?xml version="1.0" encoding="UTF-8" standalone="no"?>
<!-- Created with Inkscape (http://www.inkscape.org/) -->

<svg
   xmlns:dc="http://purl.org/dc/elements/1.1/"
   xmlns:cc="http://creativecommons.org/ns#"
   xmlns:rdf="http://www.w3.org/1999/02/22-rdf-syntax-ns#"
   xmlns:svg="http://www.w3.org/2000/svg"
   xmlns="http://www.w3.org/2000/svg"
   xmlns:sodipodi="http://sodipodi.sourceforge.net/DTD/sodipodi-0.dtd"
   xmlns:inkscape="http://www.inkscape.org/namespaces/inkscape"
   width="297mm"
   height="420mm"
   viewBox="0 0 297 420"
   version="1.1"
   id="svg8"
   inkscape:version="0.92.1 r15371"
   sodipodi:docname="abstrakt-höstig-blomvas.svg">
  <defs
     id="defs2" />
  <sodipodi:namedview
     id="base"
     pagecolor="#ffffff"
     bordercolor="#666666"
     borderopacity="1.0"
     inkscape:pageopacity="0.0"
     inkscape:pageshadow="2"
     inkscape:zoom="0.35"
     inkscape:cx="273.6108"
     inkscape:cy="887.71995"
     inkscape:document-units="mm"
     inkscape:current-layer="layer1"
     showgrid="false"
     inkscape:window-width="1280"
     inkscape:window-height="945"
     inkscape:window-x="0"
     inkscape:window-y="0"
     inkscape:window-maximized="1" />
  <metadata
     id="metadata5">
    <rdf:RDF>
      <cc:Work
         rdf:about="">
        <dc:format>image/svg+xml</dc:format>
        <dc:type
           rdf:resource="http://purl.org/dc/dcmitype/StillImage" />
        <dc:title></dc:title>
      </cc:Work>
    </rdf:RDF>
  </metadata>
  <g
     inkscape:label="Layer 1"
     inkscape:groupmode="layer"
     id="layer1"
     transform="translate(0,123)">
    <path
       style="fill:#800000;stroke:#000000;stroke-width:0.26458332px;stroke-linecap:butt;stroke-linejoin:miter;stroke-opacity:1"
       d="m 67.733385,130.93889 c 89.202385,2.26785 82.398805,-53.67263 82.398805,-53.67263 0,0 -44.60119,3.779761 -4.53571,-9.07143 40.06548,-12.851191 -60.476195,-40.821427 -60.476195,-40.821427 0,0 -31.749999,-77.863096 -30.238095,24.946427 1.511906,102.80951 -51.40476,31.75 -51.40476,31.75 0,0 -49.892858,12.85119 6.047618,44.60118 55.940475,31.75 58.208337,2.26788 58.208337,2.26788 z"
       id="path3702"
       inkscape:connector-curvature="0" />
    <path
       style="fill:#ffff00;stroke:#000000;stroke-width:0.26458332px;stroke-linecap:butt;stroke-linejoin:miter;stroke-opacity:1"
       d="m 177.29902,49.699827 c 68.03571,4.535715 112.63691,11.339285 112.63691,11.339285 l -28.7262,78.619048 -71.81547,-61.988094 20.41071,128.511904 -80.8869,-68.03572 15.875,-30.23809 -49.892857,-22.67857 z"
       id="path3708"
       inkscape:connector-curvature="0" />
    <path
       style="fill:#808000;stroke:#000000;stroke-width:0.26458332px;stroke-linecap:butt;stroke-linejoin:miter;stroke-opacity:1"
       d="M 48.991845,-10.015102 163.14065,147.22299 c 0,0 -21.16666,-77.107141 37.79762,-53.672617 58.96428,23.434527 65.76785,-89.9583327 65.76785,-89.9583327 0,0 -11.33928,-105.0773803 -81.64285,-49.8928573 C 114.7597,8.8837069 68.646607,-81.074625 68.646607,-81.074625 L 44.45613,-9.25915 Z"
       id="path3718"
       inkscape:connector-curvature="0" />
    <path
       style="fill:#808000;stroke-width:0.26458332"
       id="path3720"
       d="m 18.947757,165.76617 c 0.919029,3.28832 3.15597,6.13344 5.111443,8.87603 3.493347,4.32718 6.301685,9.13937 9.318572,13.79675 2.25959,3.64731 5.051835,6.91909 7.421978,10.48951 1.504947,2.26708 2.280761,3.67821 3.656023,6.03716 2.360406,5.09217 4.315799,10.37767 6.995829,15.32128 1.624307,2.99622 2.415665,3.99153 4.31945,6.75219 2.465909,3.39878 4.811401,6.97008 7.934129,9.82194 1.110404,1.01407 2.6683,2.13889 3.87299,3.04258 3.299089,2.31552 7.089743,3.14838 11.023044,3.52205 0.497538,-0.0122 0.996611,0.005 1.492615,-0.0365 0.972444,-0.0802 2.012794,-0.25729 2.904456,-0.68049 0.52723,-0.25021 2.002493,-1.19856 1.490329,-0.91879 -7.639264,4.17306 -9.87946,6.04181 -5.676165,2.79847 3.837628,-3.63733 7.714412,-7.25567 11.079602,-11.34377 1.865617,-2.31651 3.65584,-4.77393 4.203983,-7.74996 0.29681,-2.07984 -1.315868,-2.65272 -2.972618,-3.25107 -0.417012,-0.10832 -0.824089,-0.26712 -1.251037,-0.32496 -3.05236,-0.41365 0.801415,0.49728 -2.504117,-0.16447 -1.47085,-0.29445 -2.895867,-0.80041 -4.273619,-1.37631 -1.339879,-0.68482 -2.808785,-1.21544 -4.101557,-1.99585 -2.301111,-1.38912 0.542319,0.11247 -1.566781,-0.9669 -1.632609,-0.2378 -3.293165,0.31348 -4.927452,0.49816 -2.438902,0.2762 -4.697811,-0.95615 -6.709264,-2.19922 -2.290138,-1.44872 -3.453058,-3.7289 -4.146624,-6.25858 -0.510688,-3.44906 -1.167201,-7.02152 -0.596215,-10.51092 0.134948,-0.82471 0.386432,-1.62608 0.579649,-2.43909 0.441929,-0.85058 0.802974,-1.74834 1.325791,-2.55172 5.249129,-8.06611 15.738646,-12.71802 23.588447,-17.08362 1.604196,-0.49164 3.181409,-1.08201 4.812589,-1.47497 9.636163,-2.32145 19.868863,-2.31537 29.651913,-1.12247 3.00662,0.36661 5.98444,0.9397 8.97666,1.40955 12.36876,2.67882 24.27809,7.54864 34.50143,15.09895 6.39654,4.72408 7.67139,6.55957 13.10538,12.27269 4.67022,6.18474 6.26038,7.68811 9.71815,14.68409 3.82883,7.74673 6.22454,16.24729 7.72423,24.73124 0.44424,2.51309 0.68681,5.05769 1.03022,7.58655 0.68857,6.35995 0.88488,12.76528 1.57303,19.12491 0.35255,3.2581 0.69778,6.24588 1.76677,9.35087 0.41431,1.20341 1.04866,2.31939 1.57299,3.47909 3.45078,4.83021 7.60419,7.6508 13.52184,8.67823 1.25397,0.21772 2.53553,0.22468 3.8033,0.33702 6.81502,-0.2509 13.67515,-0.98316 20.11309,-3.39204 4.40582,-1.64851 6.6524,-3.18328 10.72846,-5.54323 -0.84027,0.21339 -3.00827,1.35702 -2.52081,0.64014 1.39813,-2.05624 3.77052,-3.25202 5.50694,-5.0318 1.86024,-1.90672 3.59648,-3.93536 5.26647,-6.01075 3.69314,-4.58962 6.51799,-8.67547 9.14887,-13.96505 1.27199,-2.55746 2.23025,-5.25931 3.34537,-7.88898 3.65942,-10.66784 5.69208,-22.00272 4.61129,-33.30627 -0.60696,-6.34773 -1.70363,-9.41338 -3.34627,-15.50546 -3.66694,-11.04953 -8.79996,-21.05835 -15.45107,-30.56644 -3.34434,-4.50726 -7.40971,-9.35715 -12.50891,-11.98364 -0.61818,-0.3184 -1.29611,-0.50422 -1.94416,-0.75631 -0.55901,0.0277 -1.13936,-0.0724 -1.67703,0.0831 -0.62156,0.17976 -2.29087,1.20428 -1.72019,0.89935 2.27117,-1.21354 4.28886,-3.161 6.82173,-3.62522 1.36297,-0.24979 -2.04233,1.88037 -2.96107,2.91767 -2.44921,2.76529 -5.72847,7.42191 -7.79802,10.24993 -1.62712,2.35556 -3.29538,4.68323 -4.88137,7.06665 -3.68517,5.53813 -6.52589,10.30095 -10.10404,15.92292 -4.243,6.66657 -8.68236,13.19977 -12.98783,19.82523 -2.25924,3.10073 -4.41425,7.08477 -8.08525,8.82221 -3.98491,1.88603 -7.84415,4.3225 -12.1679,5.18372 -1.88005,0.37449 -10.52517,-5.72553 -10.69849,-5.83724 -2.84634,-2.01517 -5.69829,-4.02246 -8.539,-6.04557 -11.82815,-8.42375 -11.03201,-8.13017 -23.9038,-16.4315 -14.0712,-9.07484 -28.50536,-17.57431 -42.850261,-26.20415 -9.41972,-5.97482 -13.428338,-8.21063 -22.062112,-14.78769 -5.423728,-4.13168 -10.028206,-7.98507 -14.416178,-13.18043 -4.560033,-5.39906 -4.726241,-6.65642 -7.731336,-12.79629 -0.662112,-2.1802 -1.513049,-4.31177 -1.986338,-6.54059 -2.032127,-9.56978 0.0286,-19.66095 3.059715,-28.78284 0.825294,-2.483653 1.864268,-4.891123 2.796403,-7.336683 3.417765,-7.747761 7.516558,-15.167048 11.987892,-22.351438 3.160871,-5.078783 6.423821,-10.058813 10.200836,-14.710447 1.951606,-2.403525 4.105711,-4.635291 6.158568,-6.952938 6.009632,-5.929812 12.714311,-11.086441 19.674151,-15.841961 1.94146,-1.326557 3.88275,-2.660465 5.9126,-3.847367 4.45122,-2.602741 8.95613,-5.116865 13.5205,-7.515648 1.6458,-0.864942 3.39719,-1.512031 5.09578,-2.268046 5.57577,-2.303026 2.8446,-1.293394 8.17839,-3.069473 0,0 -8.02062,6.23149 -8.02062,6.23149 v 0 c -5.0733,1.695585 -2.47946,0.748146 -7.77076,2.871623 -1.62598,0.723093 -3.12335,1.872526 -4.87795,2.169277 -0.99252,0.167859 3.32537,-2.263942 2.45435,-1.759379 -9.47316,5.487607 -18.20333,12.310158 -26.250237,19.695837 -2.03717,2.283855 -4.173122,4.483291 -6.111507,6.85156 -3.8822,4.743165 -6.956245,9.410031 -10.18621,14.606659 -4.412779,7.099636 -8.365545,14.466022 -11.789452,22.093891 -0.927941,2.415188 -1.955771,4.794332 -2.783821,7.245564 -3.025889,8.957349 -4.898253,18.778409 -3.067079,28.203139 0.427026,2.19783 1.218726,4.30882 1.82809,6.46322 2.716522,5.97022 3.005876,7.47276 7.128383,12.8353 4.097086,5.32948 8.331862,9.23423 13.513906,13.56149 8.646462,7.22021 11.458832,8.76064 21.103737,15.32458 4.44416,2.8099 8.85982,5.66537 13.33246,8.42971 11.65211,7.20161 17.81746,10.67128 29.55388,17.76296 44.6932,27.00565 -14.52016,-8.65495 25.18587,15.61272 3.07541,1.87965 6.21092,3.65913 9.31638,5.4887 2.23403,1.13419 4.38095,2.45938 6.70208,3.40257 1.50563,0.61182 5.03038,-0.35738 4.716,1.23713 -0.48853,2.47775 -4.13225,2.95 -5.89763,4.75592 -0.76725,0.78486 1.98905,-0.96658 2.85392,-1.64235 2.71332,-2.12006 4.21884,-4.47109 6.32715,-7.19498 1.05996,-1.50143 8.08672,-11.44693 8.70984,-12.36638 6.76589,-9.98334 12.6683,-20.50942 19.39099,-30.52048 1.66869,-2.48216 4.93296,-7.45157 6.91154,-10.01816 0.79638,-1.03304 1.47606,-2.22319 2.54191,-2.97511 3.62224,-2.55534 7.51404,-4.7141 11.39476,-6.85665 1.6464,-0.90897 2.22604,-0.5507 3.87765,-0.2762 0.63617,0.32928 1.30004,0.60982 1.90851,0.98783 5.01855,3.11793 8.81749,7.89842 12.25186,12.59633 0.84219,1.23423 1.73199,2.43729 2.52658,3.70271 5.37168,8.55467 8.76496,18.21604 12.19843,27.65021 1.66222,6.33108 2.67322,9.16675 3.3101,15.75408 0.81447,8.42383 -0.0957,17.2234 -2.04367,25.44162 -0.66048,2.78643 -1.64028,5.48738 -2.46044,8.23105 -1.08498,2.65549 -2.01028,5.382 -3.2549,7.96653 -2.58096,5.35937 -5.31524,9.38612 -8.95049,14.06551 -2.39487,3.08274 -7.13493,8.71636 -10.38819,11.10681 -4.32211,3.17585 -9,5.83666 -13.49999,8.75499 -4.33942,2.43752 -6.32857,3.80293 -11.00558,5.47118 -6.63709,2.36736 -13.7527,3.19633 -20.7524,3.40162 -1.33262,-0.13922 -2.68095,-0.17071 -3.99786,-0.4177 -6.02002,-1.12898 -10.66102,-4.37242 -13.91058,-9.51449 -0.50521,-1.23786 -1.12984,-2.43346 -1.51562,-3.71359 -0.89493,-2.96963 -1.25968,-6.62726 -1.49738,-9.67126 -0.5025,-6.43488 -0.5009,-12.90611 -1.0513,-19.33877 -0.68092,-5.9505 -0.92985,-9.7105 -2.36351,-15.59502 -2.79231,-11.46111 -7.89449,-22.0568 -15.51315,-31.09647 -5.35246,-5.64486 -6.62737,-7.46991 -12.91263,-12.15856 -10.13859,-7.56319 -21.97174,-12.30866 -34.3257,-14.76944 -3.00471,-0.43386 -5.99426,-0.99028 -9.01413,-1.30156 -10.05208,-1.03624 -20.535246,-0.69715 -30.311717,2.06748 -1.664573,0.47072 -3.262072,1.15255 -4.893109,1.72881 1.583447,-1.0078 3.089744,-2.14852 4.75034,-3.02339 1.158825,-0.6105 -2.17932,1.45494 -3.237754,2.22652 -3.579635,2.60945 -6.929165,5.59863 -9.017156,9.57143 -0.200192,0.75735 -0.456025,1.50212 -0.600572,2.27201 -0.62356,3.32121 -0.02474,6.76761 0.62747,10.03064 0.712173,2.26431 1.624375,4.28829 3.78002,5.52839 1.963602,1.1435 4.039732,2.00488 6.351201,1.54543 1.798156,-0.27334 3.621254,-0.75938 5.348052,0.0714 1.765887,1.05844 3.53306,2.14328 5.436642,2.93836 1.35813,0.49329 2.708164,0.90614 4.145242,1.10969 1.32932,0.18827 1.29769,0.0259 2.6011,0.31154 0.45502,0.0997 0.896,0.25522 1.344011,0.38283 2.08795,0.80335 3.97168,2.00424 3.7603,4.52339 -0.38622,3.27282 -2.28983,5.97808 -4.354561,8.46053 -3.35778,4.11493 -7.212808,7.73549 -10.933344,11.51552 -4.794753,4.10284 -1.829226,1.73471 -12.636524,7.94885 -1.945595,1.11868 -4.109042,1.36186 -6.307759,1.13297 -4.029927,-0.5647 -7.858318,-1.61616 -11.163011,-4.12258 -1.353617,-1.06407 -2.640746,-2.01978 -3.878144,-3.22768 -3.062359,-2.98937 -5.277411,-6.68105 -7.72877,-10.15227 -1.709891,-2.60292 -2.806171,-4.15065 -4.293653,-6.92669 -2.638602,-4.92432 -4.615222,-10.17005 -7.138016,-15.14943 -1.063255,-1.78202 -2.480099,-4.21357 -3.644834,-5.94434 -2.403181,-3.57103 -5.291995,-6.78741 -7.59691,-10.4266 -3.087686,-4.59658 -5.747598,-9.4878 -9.329725,-13.73399 -2.112801,-2.84411 -4.475519,-5.6421 -5.918004,-8.90008 0,0 9.876592,-5.34106 9.876592,-5.34106 z"
       inkscape:connector-curvature="0" />
    <path
       style="fill:#808000;stroke-width:0.26458332"
       id="path3722"
       d="m 275.16409,112.25804 c -7.41492,-3.42326 -14.96784,-6.54838 -22.6689,-9.26608 -8.49884,-2.79352 -17.321,-4.58338 -26.17426,-5.81591 -2.39035,-0.33279 -4.78159,-0.68988 -7.18905,-0.8591 -2.31191,-0.16254 -4.63435,-0.09 -6.95153,-0.13502 -6.1474,1.01746 -7.20503,0.69638 -12.86406,3.67244 -0.63274,0.33277 2.4656,-0.99015 2.11287,-0.36832 -1.28135,2.25882 -3.71427,3.67223 -5.19662,5.80458 -4.63019,6.66047 -5.59657,11.1814 -8.37433,18.94377 -1.12475,4.25445 -2.34918,8.48376 -3.37424,12.76332 -1.94446,8.11797 -4.50869,21.11811 -5.99771,29.24315 -1.91812,10.46644 -3.32903,19.05722 -4.71739,29.58166 -0.57956,4.39341 -1.02943,8.80295 -1.54414,13.20443 -1.15247,15.03963 -3.49625,30.39454 -1.13607,45.4516 0.26088,1.66429 0.69691,3.29634 1.04536,4.94451 0.84372,2.91894 2.0018,5.69563 3.6371,8.25357 0.23305,0.36455 1.07468,0.79092 0.74065,1.0659 -8.77369,7.22284 -6.37436,7.80333 -11.17772,5.64251 -4.11961,-1.85473 -7.46833,-4.86995 -10.75873,-7.9039 -2.45769,-2.26616 -4.85584,-4.59661 -7.24024,-6.93976 -8.72708,-8.57612 -10.68178,-10.76753 -19.45354,-19.92974 -14.15299,-15.12765 -27.13847,-31.47157 -36.183782,-50.2167 -1.934655,-4.00931 -3.755306,-8.08926 -5.213803,-12.29524 -1.374992,-3.96515 -2.177511,-8.10622 -3.266266,-12.15935 -0.795611,-8.19978 -1.984764,-13.81646 -0.444996,-21.93459 1.643723,-8.66621 6.997378,-18.11396 12.668818,-24.78183 1.860943,-2.18789 4.047157,-4.07683 6.070739,-6.11526 8.25,-6.14151 8.36218,-6.82096 20.57888,-11.53768 2.21338,-0.85455 4.64107,-1.03182 6.99903,-1.29522 2.38831,-0.26678 4.80607,-0.45582 7.20359,-0.29128 6.43058,0.44141 9.67766,1.94927 15.79086,3.95801 8.29501,3.81802 15.3923,9.27785 20.80283,16.68555 3.24087,4.43717 6.02271,10.08761 7.97073,15.21918 0.87633,2.30846 1.47011,4.71453 2.20516,7.07178 0.42934,2.04198 0.85867,4.08392 1.288,6.1259 0.27243,1.53561 0.50256,3.07933 0.81729,4.60682 0.18815,0.91318 0.17478,1.93373 0.69041,2.71055 0.17555,0.26445 1.19569,-0.42704 0.89743,-0.31845 -2.51278,0.9149 -5.49077,4.45426 -7.541,2.73738 -1.77523,-1.48659 2.821,-3.6725 4.2315,-5.50876 6.31801,-8.269 12.01177,-16.9808 17.79354,-25.62394 4.40346,-6.58271 9.40812,-13.89301 13.66759,-20.54617 2.28398,-3.56748 4.47468,-7.19384 6.71202,-10.79077 8.10052,-13.62765 16.49832,-27.13911 23.39046,-41.43984 4.64627,-9.6407 4.84975,-10.8145 8.54099,-20.60308 3.89073,-11.10067 7.47394,-22.362507 9.88951,-33.889157 1.25871,-6.006335 1.3571,-7.428986 2.16726,-13.30761 0.69002,-6.687452 0.79427,-13.56456 -1.7797,-19.910898 -1.59127,-3.923416 -2.95926,-5.472965 -5.38219,-8.988092 -12.42498,-16.017383 -29.35986,-27.465829 -45.96838,-38.697034 0,0 6.31774,-4.043447 6.31774,-4.043447 v 0 c 9.78626,6.486403 11.5523,7.535994 21.02544,14.286394 3.10508,2.212623 6.23075,4.400973 9.23923,6.743247 6.43593,5.010748 12.40562,10.606534 17.71956,16.795834 2.59073,3.561913 4.04408,5.104083 5.7414,9.139082 2.7572,6.554618 2.39996,13.621501 1.55755,20.519575 -0.81163,4.840517 -1.39777,8.727014 -2.49434,13.555667 -2.66008,11.713456 -6.61228,23.098509 -10.67724,34.381739 -3.51497,9.01369 -4.4616,11.94157 -8.72601,20.78404 -6.93763,14.38555 -15.40002,27.97314 -23.64878,41.62238 -11.77187,19.00092 -24.08571,37.65463 -36.4623,56.26613 -4.9237,7.71676 -3.30131,6.66473 -14.45088,12.70963 -0.41255,0.22368 -0.88084,-0.52141 -1.02105,-0.96924 -0.29897,-0.95491 -0.14141,-1.99623 -0.21974,-2.99379 -0.51545,-6.5641 -0.20783,-3.58381 -1.33957,-10.97521 -1.72677,-6.39725 -1.98394,-8.59279 -5.09212,-14.69556 -4.03712,-7.92671 -9.74424,-14.77873 -17.26896,-19.62574 -2.48637,-1.6016 -5.25661,-2.71229 -7.88492,-4.06844 -6.55821,-1.96768 -9.09059,-3.1903 -15.91538,-3.47962 -2.38505,-0.10109 -4.7823,0.10737 -7.1495,0.41564 -2.32884,0.30324 -4.5666,1.66052 -6.90214,1.41412 -0.77646,-0.0819 1.89548,-2.35432 1.19148,-2.01669 -2.35492,1.12943 -4.26856,3.0107 -6.40284,4.51602 -2.06875,2.01028 -4.29465,3.87059 -6.20624,6.03086 -5.784277,6.53677 -11.290893,15.96615 -13.23218,24.52759 -1.973736,8.70458 -0.936467,13.0651 -0.279232,22.00568 1.005345,4.06049 1.736802,8.19875 3.016035,12.18145 1.358793,4.23039 3.042257,8.35903 4.880785,12.40406 8.607862,18.93858 21.392962,35.38294 35.957582,50.10954 9.01006,8.72435 11.34042,11.31068 20.64778,19.12787 4.91787,4.13049 11.38205,9.47573 17.40657,12.19838 0.80268,0.36274 1.66893,0.56411 2.50339,0.84616 4.47906,0.0971 4.58991,-0.16412 -7.2891,6.01356 -0.3928,0.20428 -0.35041,-0.8132 -0.53049,-1.21767 -0.94843,-2.13016 -1.22923,-2.54056 -1.97096,-4.99068 -0.39597,-1.30791 -0.69465,-2.64334 -1.04198,-3.96504 -0.25695,-1.72966 -0.59856,-3.44885 -0.77084,-5.18898 -0.51274,-5.17885 -0.45338,-8.97486 -0.21642,-14.25909 0.48507,-10.81709 1.84241,-21.56269 3.14702,-32.30332 2.03219,-14.39672 4.21565,-28.74111 6.73455,-43.06218 1.25008,-7.10729 3.88543,-21.7869 5.39381,-28.99643 0.88155,-4.21346 1.91328,-8.39409 2.86992,-12.59115 2.28251,-7.4844 3.12135,-12.28844 7.28157,-18.82203 4.72982,-7.42813 10.58036,-10.19011 18.69487,-14.682 2.04273,-1.1308 4.28776,-1.90277 6.54877,-2.48523 2.12935,-0.54853 4.35792,-0.59047 6.53687,-0.88572 2.30976,0.0856 4.62561,0.0685 6.92927,0.25681 2.40656,0.19671 4.79643,0.56456 7.188,0.89715 9.00428,1.25222 17.9942,2.92597 26.66925,5.68531 7.96964,2.81276 15.78125,6.09124 23.92322,8.39462 0,0 -9.24242,6.27089 -9.24242,6.27089 z"
       inkscape:connector-curvature="0" />
    <path
       style="fill:#ff0000;stroke-width:0.26458332"
       id="path3724"
       d="m 158.18353,-44.779849 c -8.03285,-5.693442 -17.56209,-8.753427 -26.74133,-12.039891 -10.36232,-2.798276 -20.93459,-4.948587 -31.56988,-6.420773 -7.385725,-1.022369 -9.991617,-1.148448 -17.457949,-1.79161 -13.68607,-0.648616 -27.521873,-1.925672 -41.199059,-0.352208 -1.82037,0.20942 -3.617695,0.585403 -5.426543,0.878107 -1.436399,0.443582 -5.142058,2.582293 -4.309203,1.330748 1.122048,-1.686118 3.320651,-2.851319 5.345653,-2.888234 1.327877,-0.02421 -2.015938,1.764464 -2.792733,2.841696 -0.908651,1.260084 -1.619898,2.665715 -2.213832,4.10123 -2.012699,4.864592 -2.356588,8.12388 -3.409503,13.398016 -0.312632,2.977168 -0.773597,5.942478 -0.937898,8.931502 -0.184547,3.357332 -0.160911,6.724653 -0.107492,10.086628 0.182806,11.505306 1.239449,23.0954553 3.443957,34.3972672 0.76509,3.9223708 1.833393,7.7794698 2.75009,11.6692068 3.152039,9.239075 4.214629,13.562264 8.857448,22.252861 3.123287,5.846283 9.136549,14.641186 13.310549,19.853946 5.46698,6.827512 9.339893,10.402303 15.456953,16.556366 2.816479,2.230929 5.497214,4.644869 8.449437,6.692788 2.96454,2.056466 6.110176,3.845653 9.265306,5.59571 8.376777,4.646348 17.298439,8.498824 26.539639,11.065203 2.46402,0.68429 4.98935,1.12471 7.48402,1.68706 5.9823,1.12618 12.02795,1.38522 18.07323,0.72171 4.0473,-0.44422 8.05657,-1.3402 12.05309,-2.09753 2.04722,-0.26487 4.54806,-1.26163 6.60055,-0.30625 2.10973,0.98202 2.66191,3.2439 3.30704,5.23252 0.64521,3.40012 1.74817,8.00319 0.83942,11.43323 -3.61753,1.22443 -7.03877,3.47185 -10.85257,3.6733 -1.1653,0.0615 -1.16784,-2.02152 -1.79557,-3.00522 -0.99239,-1.55512 -1.959,-3.13154 -3.06349,-4.60917 -3.44179,-4.60452 -7.34037,-8.96826 -11.50259,-12.926 -2.51698,-2.39333 -5.22847,-4.573389 -7.8427,-6.860082 C 117.7303,84.803126 105.92155,76.013622 92.930929,69.364786 85.634996,65.630592 81.962973,64.373906 74.446767,61.392808 67.752629,58.665354 60.692143,56.855019 54.081798,53.908908 51.05532,52.560059 48.577952,51.321947 46.315944,48.853136 45.33202,47.779258 44.654551,46.460426 43.823855,45.264071 39.366544,36.217564 38.440574,26.81944 38.225751,16.895345 c 0.05391,-1.597178 0.01249,-3.200431 0.161729,-4.791532 0.577673,-6.1582963 2.633906,-13.5607849 6.670423,-18.3907245 1.158537,-1.3862579 2.622627,-2.4854588 3.933942,-3.7281905 4.5974,-2.606387 9.0414,-5.504154 13.792197,-7.819163 2.244402,-1.093671 4.695682,-1.717357 7.106973,-2.364763 6.339297,-1.702033 12.114903,-2.619868 18.735505,-2.62318 10.628908,-0.0053 14.15858,1.260589 24.86294,3.34613 13.86628,3.961627 18.37904,4.883906 32.08965,10.3810298 5.71879,2.2928845 11.45606,4.6003818 16.90179,7.4823796 5.52329,2.9230505 10.82491,6.2808246 15.92585,9.8907307 13.10518,9.2744579 16.20934,13.3219899 27.41176,24.5404159 3.6308,4.557818 7.55032,8.899898 10.89242,13.673455 9.14274,13.058693 16.04008,28.03821 19.66023,43.58627 2.69897,11.591687 2.51998,17.608507 3.15861,29.362567 -0.15489,13.61414 -1.76428,27.23044 -4.80377,40.50652 -2.33643,10.20525 -5.91827,20.04507 -9.41209,29.89032 -0.90241,2.52892 -3.0714,8.48149 -3.95853,11.37452 -0.51861,1.69127 -2.15295,5.89534 -0.39997,7.61915 0.37461,0.36838 0.99454,0.33917 1.49181,0.50875 0.8302,0.0177 1.66445,0.13647 2.49061,0.0527 2.24087,-0.22715 5.74924,-1.23423 7.80849,-1.79462 3.28133,-0.89297 7.31033,-1.98652 10.47642,-3.1778 1.90104,-0.71533 3.73836,-1.5897 5.60754,-2.38456 4.02575,-1.65518 7.35564,-2.88274 11.16294,-4.99502 1.00511,-0.55763 -3.75079,2.36998 -3.1578,1.38531 1.15413,-1.9164 3.51988,-2.79662 5.01171,-4.46368 5.0726,-5.66843 6.03473,-8.558 9.61767,-15.35285 1.23063,-3.43916 2.68092,-6.80746 3.69186,-10.3175 2.61252,-9.07069 4.12779,-18.85617 5.22801,-28.18315 1.3552,-11.48853 2.28981,-25.54046 2.57143,-37.01997 0.16344,-6.662384 0.0124,-13.32877 0.0188,-19.993153 -0.73718,-27.067692 -3.2566,-54.259405 -9.65134,-80.6288253 -0.82876,-3.4175223 -1.83581,-6.7893326 -2.75373,-10.1840002 -2.39681,-8.1930975 -5.32384,-16.2296925 -9.68082,-23.6036725 -1.81519,-3.072108 -6.20146,-9.275119 -8.43618,-12.098239 -1.46948,-1.856388 -3.07254,-3.603011 -4.60881,-5.404517 -3.66089,-3.739091 -6.63251,-7.000713 -10.75878,-10.273683 -1.99483,-1.582301 -4.17146,-2.920786 -6.25719,-4.38118 0,0 7.63457,-4.861192 7.63457,-4.861192 v 0 c 2.10422,1.488371 4.28768,2.870613 6.31268,4.465111 4.70232,3.702656 6.8086,6.0906 10.96635,10.301544 1.53343,1.829139 3.13564,3.602749 4.60027,5.487419 2.37305,3.053601 6.45813,8.973825 8.3455,12.313181 4.26929,7.553677 7.04882,15.759737 9.07392,24.170158 0.77165,3.4880659 1.63822,6.9564782 2.31494,10.4641969 1.73612,8.9991697 2.89941,17.6856701 3.94285,26.8092451 2.08806,18.257625 3.35732,36.599341 3.76224,54.973396 0.0511,6.643354 0.20273,13.286698 0.15335,19.930061 -0.0912,12.27092 -0.49694,24.31646 -1.49145,36.5425 -0.73861,9.08008 -1.7566,18.82468 -3.94767,27.73212 -0.85677,3.48308 -2.17728,6.8354 -3.26593,10.2531 -2.90838,5.95114 -4.52091,10.20776 -8.72083,15.31528 -1.39567,1.69727 -2.98537,3.27395 -4.78607,4.53334 -7.69028,5.37858 -15.65151,9.65933 -24.35477,12.97414 -1.91333,0.79618 -3.79814,1.66467 -5.73998,2.38849 -2.76023,1.02886 -7.91154,2.54805 -10.80189,3.35873 -2.26382,0.63495 -5.98843,1.72292 -8.4436,1.85769 -0.98318,0.054 -1.96076,-0.18341 -2.94114,-0.27514 -0.62868,-0.40497 -1.42966,-0.62248 -1.88604,-1.21491 -1.85176,-2.40374 0.0896,-6.48525 0.95774,-8.71598 0.80162,-2.05971 4.36391,-10.42633 4.96392,-11.84408 2.78767,-6.94835 4.74123,-11.5117 7.09882,-18.77213 5.45967,-16.81353 8.50633,-34.36702 8.72944,-52.05676 -0.53458,-12.01976 -0.26276,-17.44401 -2.88507,-29.319865 C 226.98902,77.792251 220.39479,62.779327 211.43199,49.641942 208.165,44.853307 204.30138,40.500207 200.73607,35.929337 189.49431,24.463653 186.88287,20.773985 173.56313,11.403103 c -5.0975,-3.5862687 -10.39837,-6.9186561 -15.9307,-9.7890703 -5.49157,-2.8492662 -11.274,-5.1178089 -17.05374,-7.3246932 -14.51065,-5.5406205 -18.30281,-5.9955005 -33.04881,-9.5930855 -4.54667,-0.72672 -9.059331,-1.713581 -13.640012,-2.180166 -7.872381,-0.801878 -14.581172,-0.619895 -22.330725,0.700172 -2.982005,0.507958 -5.876631,1.437621 -8.814945,2.156431 -2.439763,0.905256 -4.764839,2.219052 -7.319285,2.715762 -1.033111,0.200888 1.730608,-1.198202 2.595911,-1.797304 -1.303684,1.153031 -2.751275,2.161411 -3.911057,3.459097 -4.255254,4.7612297 -6.187683,11.6788297 -6.868903,17.8882512 -0.173334,1.5799435 -0.153869,3.1751168 -0.230802,4.7626748 0.01879,1.639109 -0.02689,3.280222 0.05633,4.917323 0.39965,7.861906 1.853258,15.77454 5.441047,22.833449 0.785191,1.123484 1.440548,2.349929 2.355572,3.370456 2.156725,2.405403 4.355325,3.594171 7.226787,5.045535 6.259767,3.163964 12.95695,5.351158 19.384806,8.124378 6.365891,2.681803 12.179734,4.979122 18.319115,8.210626 12.949511,6.816066 24.693171,15.757102 35.915691,25.07189 2.70016,2.257518 5.46594,4.43878 8.10047,6.772553 3.96251,3.510148 8.96728,8.425558 12.59817,12.421378 1.26122,1.38798 2.40934,2.87466 3.61497,4.31119 0.74098,0.88291 2.91341,1.72272 2.22487,2.64712 -2.13158,2.86173 -5.84639,4.09294 -8.76958,6.13942 0.25516,-0.042 0.62867,0.0934 0.76549,-0.12602 0.31448,-0.50438 0.28686,-3.17944 0.28421,-3.50303 -0.0191,-2.32639 -0.291,-4.62471 -0.90108,-6.87525 -0.45776,-1.27064 -0.68863,-2.44094 -1.67682,-3.42365 -1.8261,-1.81598 -5.02652,-0.62879 -7.15704,-0.43038 -3.88495,0.61854 -7.78214,1.41233 -11.71161,1.69117 -5.92452,0.42043 -11.82594,-0.15677 -17.63157,-1.37564 -2.42003,-0.64505 -4.87113,-1.18311 -7.26007,-1.93515 C 99.102015,103.42773 90.375742,99.398188 82.094339,94.711229 78.92434,92.917129 75.735182,91.132126 72.755751,89.036731 69.799625,86.957726 67.137134,84.489761 64.327828,82.216276 59.008226,76.71139 53.708932,71.499997 48.965053,65.461653 46.549415,62.386856 44.353524,59.142215 42.195622,55.881366 39.928752,52.455856 37.649623,49.025154 35.696633,45.411475 30.75582,36.269478 30.02875,32.787683 26.726369,23.043817 25.808485,19.133935 24.763356,15.251754 23.972718,11.314164 21.707862,0.03457162 20.417059,-11.42317 19.927714,-22.91014 c -0.14195,-3.332149 -0.28659,-6.668238 -0.228516,-10.002903 0.05134,-2.947863 0.370964,-5.884939 0.556446,-8.827408 0.821195,-5.815491 1.229409,-12.392834 4.427208,-17.560054 0.716467,-1.157719 1.523104,-2.344224 2.650265,-3.107862 9.932493,-6.729158 8.64916,-6.011413 16.25827,-7.934047 1.728843,-0.201777 3.450809,-0.475332 5.186524,-0.605327 13.557469,-1.015394 27.163643,0.296595 40.704221,0.871662 7.347532,0.617096 10.343891,0.777462 17.624348,1.748157 7.06957,0.942579 9.30887,1.436886 16.22902,2.809333 10.08073,1.999268 5.87665,1.02634 15.51427,3.686387 9.67598,3.258484 19.42511,6.362088 28.63388,10.821797 0,0 -9.30012,6.230556 -9.30012,6.230556 z"
       inkscape:connector-curvature="0" />
    <path
       style="fill:#ff0000;stroke-width:0.26458332"
       id="path3726"
       d="m 61.363977,254.53413 c -1.4654,-4.17923 -4.631975,-7.69517 -7.360581,-11.11012 -1.047922,-1.06211 -2.070227,-2.15011 -3.14376,-3.18635 -0.971759,-0.93797 -7.24095,-6.66229 -8.06754,-7.47816 -2.365444,-2.33484 -5.854096,-6.23866 -8.151761,-8.64306 -1.382419,-1.44661 -2.800775,-2.85848 -4.201162,-4.2877 -1.476403,-1.36859 -2.949911,-2.74029 -4.429207,-4.10573 -3.984713,-3.67805 -5.039707,-4.74184 -9.260808,-8.14131 -5.702928,-4.59287 -3.863083,-2.77553 -9.3536956,-7.28056 -1.2942413,-1.06194 -2.536814,-2.1853 -3.805221,-3.27795 -4.505238,-4.34769 -9.31812,-8.30451 -14.3503434,-12.01468 -2.45862,-2.07505 -2.659449,-3.58905 -0.114538,-5.66756 5.1679544,-4.61994 8.5021464,-4.89498 13.4989804,-6.88393 1.323473,-0.52681 1.848274,-0.98803 3.3048327,-1.18176 1.0396715,-0.13827 2.0946612,-0.112 3.1419919,-0.16801 17.039736,0.25495 34.097263,-0.18531 51.128498,0.42294 2.329788,0.40087 4.694592,0.63463 6.989365,1.20263 5.168247,1.27924 10.123514,3.4077 14.879058,5.75276 6.617301,3.26311 11.007807,5.92574 17.145884,10.11862 2.93371,2.00398 5.75525,4.16745 8.63287,6.25118 7.35001,6.06496 14.72274,12.30259 20.08291,20.29259 1.48724,2.21691 2.74195,4.58906 3.90794,6.99052 1.04323,2.14863 2.00776,4.3506 2.70735,6.63435 0.67003,2.18726 0.92271,4.48112 1.38407,6.72169 0.037,2.25748 0.30458,4.52297 0.11109,6.77246 -0.43875,5.10095 -1.92585,9.45883 -3.77889,14.19691 -2.85783,7.30723 -6.45885,13.51846 -10.48851,20.19741 -2.81156,4.8328 -6.48428,9.09823 -9.43573,13.83557 -0.19176,0.30779 -1.92625,3.15235 -1.82641,4.13623 0.0213,0.21011 0.40667,0.1139 0.61,0.17087 7.08848,-1.11842 13.9633,-3.20911 20.91573,-4.93866 5.17378,-1.24405 9.76761,-3.53753 14.42551,-6.02451 0.93243,-0.49787 -3.56212,2.20832 -2.8143,1.46127 1.54248,-1.54086 3.55323,-2.53175 5.25288,-3.89732 1.75005,-1.40607 3.39251,-2.94103 5.08877,-4.41155 3.90604,-4.42656 5.44599,-5.69989 8.36205,-10.93494 3.61812,-6.49547 6.00111,-14.30345 7.12614,-21.63157 0.37503,-2.44284 0.42456,-4.92466 0.63684,-7.387 0.0352,-8.63386 -1.05393,-17.46571 -5.16072,-25.20596 -2.3687,-4.46439 -4.71299,-7.0444 -7.85214,-11.02421 -5.90646,-6.31076 -12.7746,-11.58033 -19.72232,-16.67332 -4.28032,-3.13767 -8.09063,-5.92993 -12.83028,-8.38026 -2.7086,-1.40028 -5.55823,-2.50904 -8.33735,-3.76356 -3.06481,-1.41709 -6.18393,-2.72217 -9.19445,-4.25122 -3.09287,-1.57089 -6.05607,-3.38532 -9.10361,-5.04243 -3.048717,-1.65777 -6.094441,-3.32274 -9.184611,-4.90191 -5.623687,-2.87383 -10.725282,-5.25513 -16.553923,-7.63035 -2.285444,-0.93133 -4.616611,-1.7463 -6.924918,-2.61942 -4.530352,-1.42418 -9.225706,-3.23819 -14.083482,-2.90785 -1.762141,0.11983 -4.603608,0.90921 -6.228723,1.6665 -0.883971,0.41193 -1.675429,0.99864 -2.513145,1.49797 2.279287,-1.24889 4.51013,-2.59059 6.837862,-3.74669 0.629076,-0.31245 -1.147167,0.8109 -1.726485,1.20806 -0.431824,0.29604 -0.841973,0.63042 -1.306756,0.87146 -3.555455,1.84378 -6.980626,4.00899 -10.744471,5.37803 -0.643909,0.23421 -1.854241,-1.78766 -2.609537,-2.87587 -2.981359,-4.77191 -5.893201,-9.58029 -9.051848,-14.23992 -1.663216,-2.45356 -3.425564,-4.83899 -5.087427,-7.29348 C 16.057079,123.14872 9.7101284,113.35011 7.178816,109.45899 1.5756164,100.83684 -3.6931596,92.02104 -8.2375856,82.79251 -10.766251,77.65746 -12.972447,72.87369 -14.8373,67.47125 c -0.750752,-2.174917 -1.300191,-4.414186 -1.950286,-6.621279 -1.134369,-5.31994 -1.874951,-10.841686 -0.824849,-16.253865 0.686388,-3.537614 1.501048,-4.736317 3.012509,-7.842485 0,0 9.2758284,-4.174882 9.2758284,-4.174882 v 0 c -1.703889,3.023224 -2.580707,4.120745 -3.424439,7.632782 -1.2802574,5.329071 -0.780826,10.876714 0.120666,16.205528 0.550397,2.230226 0.987462,4.491514 1.651192,6.690672 1.640063,5.434079 3.729957,10.330549 6.107685,15.488649 4.295554,9.31851 9.3894352,18.20439 15.0441806,26.76557 2.023444,2.9981 4.006637,6.02377 6.070333,8.9943 6.047253,8.70461 5.315109,7.41786 11.44934,15.40164 2.656254,3.45715 5.208076,6.99457 7.903465,10.4213 0.796462,1.01256 1.648129,1.98046 2.472194,2.97069 0.440388,0.48024 0.819941,1.02438 1.321162,1.44076 0.246774,0.20497 1.136952,0.19534 0.880634,0.38827 -2.560168,1.92699 -5.442516,3.38384 -8.156176,5.08789 -0.484604,0.30432 0.988846,-0.577 1.468839,-0.88852 0.624974,-0.40564 1.209201,-0.87334 1.844786,-1.26212 3.695688,-2.26071 7.43075,-4.45638 11.146125,-6.68457 0.866703,-0.43693 1.695532,-0.95892 2.600108,-1.31079 1.787749,-0.69546 4.410786,-1.24347 6.312532,-1.22756 4.692687,0.0392 9.096904,2.13484 13.37655,3.75663 5.58596,2.41557 8.77444,3.71853 14.371894,6.48472 2.823302,1.39526 5.598813,2.88537 8.38531,4.35272 3.074135,1.61885 6.137267,3.25858 9.196307,4.90577 3.04514,1.63973 6.0086,3.43665 9.11609,4.9549 3.07303,1.50144 6.27189,2.73035 9.40783,4.09552 2.91666,1.20848 5.91486,2.23641 8.74999,3.62542 5.56682,2.72735 7.97614,4.79634 12.77172,8.54877 2.18747,1.71164 4.34085,3.46641 6.5155,5.1943 2.42034,1.92312 4.90474,3.76761 7.26947,5.75874 2.17825,1.83409 4.23524,3.80753 6.35287,5.71132 3.22741,3.89824 5.83738,6.63659 8.24368,11.09551 4.24677,7.86937 5.04373,17.03491 5.02128,25.79828 -0.22743,2.5106 -0.30985,5.03862 -0.68229,7.53184 -1.11115,7.43834 -3.23396,15.15486 -6.76311,21.83114 -2.79687,5.29098 -4.36245,6.64348 -8.18127,11.13655 -2.90464,2.58318 -6.83898,6.29465 -10.15132,8.41028 -8.89728,5.68286 -18.07978,11.25527 -28.34774,14.02043 -4.37289,1.12602 -8.71709,2.37377 -13.09763,3.468 -1.05847,0.2644 -5.91382,1.42881 -7.21818,1.50292 -0.69674,0.0396 -1.38198,-0.19545 -2.07298,-0.29316 -0.33726,-0.45191 -0.95794,-0.79441 -1.01178,-1.35573 -0.096,-1.00036 2.26513,-4.52353 2.42446,-4.75527 3.2933,-4.7906 7.25005,-9.1167 10.25304,-14.11674 4.13741,-6.68541 7.7062,-12.65727 10.59746,-20.03036 1.80024,-4.59087 3.23212,-8.87471 3.70333,-13.80969 0.21017,-2.20115 -0.004,-4.42235 -0.006,-6.63353 -1.18218,-6.41731 -0.93802,-7.17867 -3.65956,-13.27862 -1.06978,-2.39778 -2.24063,-4.76424 -3.64498,-6.98269 -5.0806,-8.02595 -12.18979,-14.40514 -19.45487,-20.38496 -2.892576,-2.05396 -5.717352,-4.20693 -8.677727,-6.16191 -9.969818,-6.58394 -20.982241,-12.23912 -32.670689,-15.0305 -2.230948,-0.53279 -4.514919,-0.81206 -6.772381,-1.21811 -2.473015,-0.16555 -4.942766,-0.39058 -7.419046,-0.49663 -14.875524,-0.63706 -29.82104,-0.2558 -44.6536676,0.9656 -1.126561,0.1977 -2.265301,0.33546 -3.379683,0.59309 -0.969886,0.22423 -2.428029,0.90855 -3.342518,1.2659 -3.686252,1.44047 -10.3374524,4.06336 5.333083,-3.8113 -2.338136,1.17623 -3.203181,1.77377 -1.001013,3.92626 4.69551,4.01079 9.311014,8.10268 13.5997336,12.55625 1.197786,1.11615 2.358727,2.27317 3.593358,3.34841 4.301022,3.74576 4.699247,3.68964 9.24609,7.37468 3.75293,3.04159 5.753064,4.89701 9.31147,8.16266 1.494451,1.37149 2.975409,2.75762 4.463114,4.13644 1.414063,1.43119 2.849453,2.8416 4.242189,4.29355 3.154918,3.28907 4.857199,5.3939 8.156992,8.54618 3.372493,3.2217 4.947494,4.25976 8.383217,7.3225 1.150962,1.026 2.251575,2.10714 3.377362,3.16074 3.064438,3.4512 6.316948,6.92346 8.497501,11.02302 0,0 -9.876594,5.34106 -9.876594,5.34106 z"
       inkscape:connector-curvature="0" />
    <ellipse
       style="fill:#550000;stroke-width:0.26458332"
       id="path3732"
       cx="131.2507"
       cy="110.49397"
       rx="5.0066509"
       ry="138.12509" />
    <path
       style="fill:#00ff00;stroke:#000000;stroke-width:0.26458332px;stroke-linecap:butt;stroke-linejoin:miter;stroke-opacity:1"
       d="M 67.733385,130.93889 C 182.94047,94.40477 161.77381,24.857153 161.77381,24.857153 c 0,0 -74.458353,-111.149862 -103.752988,-38.566002 C 28.72619,58.87501 117.92857,44.511913 117.92857,44.511913 Z"
       id="path3734"
       inkscape:connector-curvature="0" />
    <path
       style="fill:#ff7f2a;stroke:#000000;stroke-width:0.26458332px;stroke-linecap:butt;stroke-linejoin:miter;stroke-opacity:1"
       d="m 149.67857,-120.2857 c 30.2381,0.75595 92.98214,30.238091 92.98214,30.238091 0,0 -86.93452,-18.898811 -99.78571,3.779761 -12.85119,22.678572 71.81548,69.547617 71.81548,69.547617 0,0 -95.79913,35.493867 -109.00221,-18.997252 -13.203072,-54.491122 43.9903,-84.568217 43.9903,-84.568217 z"
       id="path3736"
       inkscape:connector-curvature="0" />
  </g>
</svg>
