<svg width="210mm" height="420mm" viewBox="0 0 210 420"
xmlns="http://www.w3.org/2000/svg">
<rect x="0" y="0" width="210" height="420"
fill="#ffffff"/>
    <polygon points="210,3.51776905427 98.3379864766,0 108.874408032,23.4458435738 159.033273453,46.4371648101 96.3219317952,116.953690494 170.491076424,73.7288267933 185.756550586,123.500764003 210,157.35587784 186.318678849,57.1569931576 210,98.9039320067 210,30.7426864717" fill="hsl(62.614342858, 59.9130385643%, 55.345443969%)" fill-opacity="0.939041728903"/>
    <polygon points="210,41.4945895798 203.46248598,126.878207209 183.420870462,77.5990444352 171.433329028,129.876258428 152.486083638,178.368314315 210,239.948093193 210,179.132714876 210,157.863678356 210,175.587408345 210,136.348602728" fill="hsl(16.6782089998, 68.4683403247%, 53.5077531162%)" fill-opacity="0.914172907037"/>
    <polygon points="96.4527099624,128.079849732 99.1183719248,159.712777244 85.9754286448,168.838270373 50.6377697316,211.85853456 124.942260466,291.549059941 137.065022942,238.642157373 140.505137751,210.635257629 136.768759703,178.32966122 144.262644954,177.09612643 133.624084887,155.432630245" fill="hsl(54.4692717871, 55.122978375%, 60.9412364186%)" fill-opacity="0.833806634511"/>
    <polygon points="142.12645676,59.7670097493 6.35003829163,120.110975512 0,124.148278699 0,145.268341594 0,195.439734397 30.509524067,207.396095413 85.513146032,205.344676443 77.9629316708,169.625731624 42.2906906545,149.461958321 127.470142296,160.181025631 47.8024024717,118.223814046" fill="hsl(11.1642635264, 62.0547948789%, 23.7078289877%)" fill-opacity="0.887991303363"/>
    <polygon points="114.991305053,281.014248805 58.3709476634,331.993418697 22.2064246335,319.372743936 26.1054710643,414.916851599 80.413320407,420 191.428742216,420 165.790767282,412.825352511 124.841117567,382.252028409 162.320389291,358.118956262" fill="hsl(63.4053993392, 63.2643080157%, 26.274757485%)" fill-opacity="0.830418489354"/>
      <polygon points="114.991305053,281.014248805 58.3709476634,331.993418697 22.2064246335,319.372743936 26.1054710643,414.916851599 80.413320407,420 191.428742216,420 165.790767282,412.825352511 124.841117567,382.252028409 162.320389291,358.118956262" fill="#ffffff" fill-opacity="0.5"/>
    <polygon points="210,157.364788686 127.379657114,201.799935868 202.289241095,102.228026854 101.036006168,173.611800928 104.220356532,188.228464167 94.4653572474,154.605234766 86.2863143444,186.851229498 35.964486181,274.147115134 106.241754972,244.752517696 145.785974473,256.105443741 176.094606365,260.154537772 210,247.719777751 121.78463282,213.04165806" fill="hsl(2.27860749697, 83.2611331804%, 39.5507961359%)" fill-opacity="0.969739783463"/>
    <polygon points="210,18.0741839284 190.129320437,71.0494722139 188.558105787,114.340703651 149.316266146,201.258449269 201.222882653,123.967449597 191.954568787,197.604871696 210,119.029989297 210,133.22169215 210,84.7427320654" fill="hsl(345.581327071, 95.0897025408%, 34.1970820471%)" fill-opacity="0.938479158242"/>
    <polygon points="101.862557724,287.491436554 0,335.612570456 42.5719145414,390.397121474 58.6121808536,389.724953151 33.3961448285,420 115.642864051,418.496053877 94.1972656047,388.277159939 145.038039728,343.403897521" fill="hsl(40.9518141499, 82.622505415%, 55.3972267398%)" fill-opacity="0.88261147546"/>
      <polygon points="101.862557724,287.491436554 0,335.612570456 42.5719145414,390.397121474 58.6121808536,389.724953151 33.3961448285,420 115.642864051,418.496053877 94.1972656047,388.277159939 145.038039728,343.403897521" fill="#ffffff" fill-opacity="0.5"/>
    <polygon points="165.337176857,68.5007231185 137.31090881,63.2511057129 150.603881789,93.186381018 115.87355982,82.9287399705 50.2612678074,86.499288398 68.1960981622,140.672480867 123.874903727,127.05869027 158.695677066,98.4153307599 210,53.7851031485" fill="hsl(86.6748405926, 72.4956023818%, 69.1558089454%)" fill-opacity="0.772780653449"/>
    <polygon points="69.2525528838,158.10647702 20.177764993,108.264943614 0,131.037898903 0,158.891213295 5.96263987522,187.110190688 0,260.760180876 26.6055524723,179.345341175 65.4738620476,111.063992673" fill="hsl(99.545958314, 67.6093553163%, 5.28274873144%)" fill-opacity="0.816132391239"/>
    <polygon points="27.2355103625,102.653919612 79.9845616962,68.2921881201 7.65982083887,105.632392292 43.2701653021,0 0,60.5131449232 0,133.553522173 0,173.762633961 60.3665881776,113.572528955 12.7619368274,102.617188552" fill="hsl(83.9790513852, 56.5852661699%, 36.2532768217%)" fill-opacity="0.963117082159"/>
    <polygon points="202.486600937,91.8162504408 120.319240025,82.4000920833 93.1275574729,85.8289049654 121.891948282,128.860773366 105.224453023,135.930418625 113.127278083,146.079200465 112.958270029,174.727379519 114.490790304,241.239750608 160.856706713,139.892787403 174.273115425,113.520186021" fill="hsl(102.623062939, 63.6309857277%, 16.0904985842%)" fill-opacity="0.846169559139"/>
    <polygon points="210,308.058083593 147.523920132,305.340417271 116.838490348,387.213440787 171.793537001,420 210,331.838130779 210,340.507658504 210,333.499594974 210,357.931851643 210,332.567687622 210,312.998418479" fill="hsl(23.316644632, 73.0735235436%, 17.9914621442%)" fill-opacity="0.924554301936"/>
      <polygon points="210,308.058083593 147.523920132,305.340417271 116.838490348,387.213440787 171.793537001,420 210,331.838130779 210,340.507658504 210,333.499594974 210,357.931851643 210,332.567687622 210,312.998418479" fill="#ffffff" fill-opacity="0.5"/>
    <polygon points="190.597911639,49.963329386 183.772188475,16.1693523607 128.537921757,94.8421803006 180.132465052,149.782336473 182.630596084,136.331917598 197.54714624,98.5066168109 210,78.0441489632" fill="hsl(69.2687161537, 59.4392450741%, 61.958497982%)" fill-opacity="0.902634671622"/>
    <polygon points="23.3506988742,107.940630038 14.8854289316,84.3005653488 12.1586123613,114.042076599 0,38.1349428523 0,113.469564413 7.11874067734,132.380241384 0,160.063827856 0,154.43173555 0,156.319267392 25.7472885558,164.875136101 86.849460883,231.311757684 113.247422146,187.950359997 65.8205576636,161.36357186 62.1065230952,126.912369148" fill="hsl(345.074400418, 70.0823278469%, 18.6625983454%)" fill-opacity="0.977074466218"/>
    <polygon points="210,139.73233881 210,81.9961361733 200.796915202,204.5235715 138.428226402,168.29572971 100.791029626,240.581668513 92.2844192581,293.099891982 179.847815788,272.141202949 210,314.267603662 210,230.521910824 210,217.789465897 210,168.654020316" fill="hsl(93.7691039402, 66.6771302571%, 29.0404903661%)" fill-opacity="0.80508053143"/>
    <polygon points="210,163.560934469 210,116.45139562 184.016445515,136.317438225 100.554921562,124.940099118 161.472638312,181.783621415 183.687088903,196.327452913 167.221894334,196.945944478 74.2139495895,214.034830643 187.867094495,297.584618552 210,276.237439312 210,244.467788328 210,203.639066018 210,152.788093619" fill="hsl(27.6858008066, 60.8906331723%, 53.7901063452%)" fill-opacity="0.889854792443"/>
    <polygon points="210,303.542946142 210,266.65642349 200.205751249,287.669819158 158.347381552,257.728073871 177.404119716,314.318538261 70.9176037474,344.707222615 130.581089753,378.173372289 210,374.319011711 210,327.272334331 210,273.729449797" fill="hsl(23.6987898706, 57.3907692307%, 9.46296445032%)" fill-opacity="0.982498296194"/>
      <polygon points="210,303.542946142 210,266.65642349 200.205751249,287.669819158 158.347381552,257.728073871 177.404119716,314.318538261 70.9176037474,344.707222615 130.581089753,378.173372289 210,374.319011711 210,327.272334331 210,273.729449797" fill="#ffffff" fill-opacity="0.5"/>
    <polygon points="138.948164694,290.536370558 99.1544816338,286.548275511 83.7905343441,296.644837144 137.515871246,175.85459589 72.7800873154,307.402953363 79.8106159305,228.65305548 57.9685858126,307.434089919 0,335.191474023 0,368.586701462 38.1336678215,328.793583623 62.3789390475,330.270136994 99.9720491705,396.968050091 98.8070755923,326.149356655 134.295829304,302.294045346" fill="hsl(71.0821410695, 66.5341007645%, 53.5240963416%)" fill-opacity="0.92874718247"/>
      <polygon points="138.948164694,290.536370558 99.1544816338,286.548275511 83.7905343441,296.644837144 137.515871246,175.85459589 72.7800873154,307.402953363 79.8106159305,228.65305548 57.9685858126,307.434089919 0,335.191474023 0,368.586701462 38.1336678215,328.793583623 62.3789390475,330.270136994 99.9720491705,396.968050091 98.8070755923,326.149356655 134.295829304,302.294045346" fill="#ffffff" fill-opacity="0.5"/>
    <polygon points="198.445135651,119.76233484 133.391231317,31.080691717 117.914349032,86.3462726073 140.779558592,121.48644539 71.0246879956,213.137375764 152.35925869,235.389801433 184.647269066,158.514412314 210,123.007503845" fill="hsl(95.4979338398, 79.2560144869%, 34.1083251108%)" fill-opacity="0.842281032164"/>
    <polygon points="73.5320393609,64.8442399042 44.530578553,99.215487097 33.0214022961,156.37943237 57.8006741625,204.810834045 210,177.060113135 135.406211553,87.6884956786" fill="hsl(28.1484877422, 97.4983657765%, 56.9758996086%)" fill-opacity="0.82633354679"/>
    <polygon points="9.16808431622,124.851319032 0,139.218665277 0,161.069227763 0,204.995836306 0,216.073451381 0,208.358425916 33.3573916397,316.511091365 22.8795791774,226.821935542 26.9037313942,208.276312829 9.14432795114,191.338906723" fill="hsl(45.2809931065, 73.7294400963%, 54.9824326783%)" fill-opacity="0.920792466581"/>
    <polygon points="15.9981893815,155.115371273 1.84555968331,164.076837598 0,177.092196822 0,200.103759718 0,194.39665592 0,208.073086389 26.121776582,221.616292027 86.3579157402,252.40540923 112.766681593,274.717435698 6.88285853517,170.55254744 88.8185883606,155.294743917" fill="hsl(15.550157156, 54.2015967018%, 43.5505481612%)" fill-opacity="0.855263397892"/>
    <polygon points="160.352634189,295.485672646 145.186041079,308.405530791 113.328710737,280.220602556 121.121228255,332.217775248 112.126850762,331.144812398 0,371.85035007 67.6140229811,409.052944519 114.591534798,402.620904508 126.852500555,355.110954625 132.210108806,355.184286975 167.84105654,378.718649733 138.701324467,344.17287869 210,344.81836479 210,305.562292322" fill="hsl(44.3085705728, 82.4757397243%, 20.2775073557%)" fill-opacity="0.953850977492"/>
      <polygon points="160.352634189,295.485672646 145.186041079,308.405530791 113.328710737,280.220602556 121.121228255,332.217775248 112.126850762,331.144812398 0,371.85035007 67.6140229811,409.052944519 114.591534798,402.620904508 126.852500555,355.110954625 132.210108806,355.184286975 167.84105654,378.718649733 138.701324467,344.17287869 210,344.81836479 210,305.562292322" fill="#ffffff" fill-opacity="0.5"/>
    <polygon points="163.022187171,207.484488907 123.762559877,200.95786275 84.978247892,158.375607781 0,147.253331138 14.5465912401,197.741465689 75.6186943949,240.145022953 59.6883175859,281.366282296 117.967657193,233.708311047 197.749689403,125.13226415" fill="hsl(60.5791899573, 77.9998515939%, 64.2086749247%)" fill-opacity="0.822495631487"/>
    <polygon points="210,148.651123595 132.947655288,126.965117375 137.672706649,203.41900329 159.056943664,204.203108102 166.742975256,234.193297294 167.25623105,284.48404375 210,230.684300013 210,216.336802913 210,186.452908379" fill="hsl(44.4220889378, 83.0728725872%, 47.0354445465%)" fill-opacity="0.879664166331"/>
    <polygon points="210,140.82277555 210,90.9688399443 151.409053939,122.472580209 154.684293155,189.647492227 162.223017253,216.540777026 205.583458098,187.101308091 210,198.698034565 210,157.484451277" fill="hsl(82.8197262406, 76.9980503169%, 23.3524717092%)" fill-opacity="0.900232429069"/>
    <polygon points="101.458902702,217.975234207 156.452179802,201.993605362 115.447352965,208.553184992 85.3535099686,170.355828832 90.3618595148,214.689380646 91.1767298878,215.805598296 76.3806953528,217.172433262 0,230.636630262 90.1417591801,241.247077349 127.12327368,269.20062446 129.25291276,216.927111497" fill="hsl(35.8171432111, 53.3117740974%, 22.6558542411%)" fill-opacity="0.91893749204"/>
    <polygon points="82.6383145449,307.719538654 148.300454073,270.088341534 77.0070897926,309.334058286 58.7393539018,284.036461642 46.2041388034,288.052799998 0,239.812264769 14.6454682731,356.408966447 77.4243550831,383.848840629 133.449679735,317.989385813 155.917390025,278.6420917" fill="hsl(6.26245782718, 90.2503346158%, 36.3173942874%)" fill-opacity="0.921611877005"/>
      <polygon points="82.6383145449,307.719538654 148.300454073,270.088341534 77.0070897926,309.334058286 58.7393539018,284.036461642 46.2041388034,288.052799998 0,239.812264769 14.6454682731,356.408966447 77.4243550831,383.848840629 133.449679735,317.989385813 155.917390025,278.6420917" fill="#ffffff" fill-opacity="0.5"/>
    <polygon points="91.6057962917,16.6722755536 145.86543335,0 72.2985424524,0 0,0 0,10.5673368148 0,13.3287234719 32.6978814296,42.9132898108 30.0758290424,124.991387459 87.1007418063,75.5469472195 57.4833543198,27.4969935687" fill="hsl(29.283537991, 73.8838132074%, 17.5187160279%)" fill-opacity="0.849777196026"/>
    <polygon points="115.09966731,97.5642980784 109.281041846,74.5773852855 75.8514114741,145.864189143 0,171.861496149 56.7023574878,199.654858603 122.545181945,202.649188312 79.8865279179,148.754915243 127.866661628,177.386914135 161.256447177,189.881854636 96.6618935966,149.3685906 189.597074111,124.124370238" fill="hsl(110.00396473, 63.8544115345%, 39.9718599679%)" fill-opacity="0.771103960474"/>
    <polygon points="210,365.014790433 181.543499509,348.490478638 183.499826473,373.620908928 130.921973172,363.121351631 142.332279748,420 170.578115661,420 178.367267472,420 185.459846809,420 210,420 210,420 210,420 210,400.771667844" fill="hsl(77.3240886077, 72.1674361063%, 41.3650785371%)" fill-opacity="0.993953304128"/>
    <polygon points="99.9097962932,178.93538837 115.109262342,131.213740441 115.300163865,113.02789137 88.7644121343,178.70832312 3.07168251144,160.693759854 56.1420506147,194.241638469 21.8975205265,210.796437516 57.4163281945,207.963432435 82.3669208921,221.161426857 90.2189317227,187.83763765 112.092066961,253.146474691 161.084182297,267.177171939 112.511499099,195.489019753 137.512242553,165.624505449" fill="hsl(70.4248773365, 75.4223645445%, 52.5891958684%)" fill-opacity="0.96713952798"/>
    <polygon points="121.924839272,353.778349595 92.9570259497,351.469596489 83.1335655868,369.609129832 25.7215992603,336.38922848 14.624880688,354.451358368 59.3668089771,386.875454904 59.3427844548,420 162.241253311,420 200.69404536,346.851861934" fill="hsl(79.5012375816, 58.8914443255%, 19.5241163029%)" fill-opacity="0.90993362079"/>
      <polygon points="121.924839272,353.778349595 92.9570259497,351.469596489 83.1335655868,369.609129832 25.7215992603,336.38922848 14.624880688,354.451358368 59.3668089771,386.875454904 59.3427844548,420 162.241253311,420 200.69404536,346.851861934" fill="#ffffff" fill-opacity="0.5"/>
    <polygon points="167.341545851,400.997377985 210,376.387057636 210,318.646701254 178.23238877,338.856028349 142.410473847,370.227280713 73.7703614281,417.458120728 61.8788925809,420 138.415068401,420 193.269372646,420 173.793018185,395.010625661" fill="hsl(77.7925560962, 57.1474896051%, 21.6968879568%)" fill-opacity="0.78132689709"/>
    <polygon points="170.647733953,67.8997840439 40.7973259572,0 44.1251979828,27.7485814927 34.5264377072,77.4268408638 35.4128617682,166.254044842 71.9183995251,162.885224005 106.152169241,172.26011598 157.146490674,133.108420515 199.560861026,107.676227448 210,10.685267144" fill="hsl(27.9519260267, 71.1133332317%, 39.3553110989%)" fill-opacity="0.879187919314"/>
    <polygon points="178.800299057,0 147.357995575,51.0245502579 125.117693357,0 119.989804877,34.7694557781 142.135993581,59.0150269712 113.014036938,44.5555672052 129.490223482,59.7460042054 31.5099177046,151.84127493 115.213056598,101.448541133 147.675365886,184.904092614 169.662684239,123.685281888 210,67.7386732712 150.289631347,61.0847363781" fill="hsl(82.4191134029, 67.6151862826%, 38.7549465246%)" fill-opacity="0.999602437376"/>
    <polygon points="54.1328943831,80.1009470198 12.1436585421,87.4092861457 9.99332752321,84.1896879622 0,74.3751722999 0,91.7959386835 0,93.6264142782 0,100.990912279 0,113.227416119 0,193.247879635 28.5985568814,152.172139166 74.0320618992,116.019780311 182.57032725,83.2187462901" fill="hsl(21.2549173442, 69.8638889867%, 76.9115421829%)" fill-opacity="0.902909983768"/>
    <polygon points="87.8573984379,382.972291314 70.9639309922,367.972511756 120.718337551,315.916001681 0,321.702568426 0,356.073352771 0,338.122866372 9.37238118914,389.848241822 0,397.091758942 2.79262994217,420 64.1409640154,406.402516442 60.1057088945,314.49447148" fill="hsl(31.0554710134, 51.5094805046%, 31.4162399258%)" fill-opacity="0.877642581754"/>
    <polygon points="172.599976743,205.490117682 164.71199246,156.395119573 125.034477003,149.143373007 116.758825075,197.844317918 80.5286980726,222.946496796 93.5313820975,242.358826033 41.0190491798,288.257163814 116.654491845,297.113772929 123.506260906,277.75337877 166.629501344,279.320412088 164.98302833,250.65020172 210,217.757601475" fill="hsl(15.9629999862, 59.5035075209%, 58.4272134094%)" fill-opacity="0.897680529064"/>
    <polygon points="66.9684123414,327.335010699 75.3240299339,307.54566718 15.1299517628,229.433613274 10.4175117653,326.000646013 0,378.480769631 16.3603788181,395.787706158 44.7033521142,347.017261392 148.567970735,420 176.223970717,327.398553757" fill="hsl(2.79054907661, 82.5037516814%, 10.7334784954%)" fill-opacity="0.969801362405"/>
      <polygon points="66.9684123414,327.335010699 75.3240299339,307.54566718 15.1299517628,229.433613274 10.4175117653,326.000646013 0,378.480769631 16.3603788181,395.787706158 44.7033521142,347.017261392 148.567970735,420 176.223970717,327.398553757" fill="#ffffff" fill-opacity="0.5"/>
    <polygon points="109.035220749,313.396978188 89.2759052225,331.606291529 81.1127844326,348.215817177 31.0315471588,385.586735009 78.0849839899,406.897105064 193.096486388,369.370697861 132.744081563,340.835302595" fill="hsl(60.3911690687, 98.1604753992%, 35.9145772217%)" fill-opacity="0.816879861958"/>
      <polygon points="109.035220749,313.396978188 89.2759052225,331.606291529 81.1127844326,348.215817177 31.0315471588,385.586735009 78.0849839899,406.897105064 193.096486388,369.370697861 132.744081563,340.835302595" fill="#ffffff" fill-opacity="0.5"/>
    <polygon points="52.6343105499,287.841816394 0,258.717838275 29.338858799,347.467219574 11.7144557039,403.823079405 49.8457786874,378.989763061 52.918119576,408.477434113 57.9213394213,390.571375705 72.4346345402,374.968026003 70.0402533608,336.355860177" fill="hsl(51.5552639821, 34.8748762162%, 72.5205585908%)" fill-opacity="0.900696040669"/>
      <polygon points="52.6343105499,287.841816394 0,258.717838275 29.338858799,347.467219574 11.7144557039,403.823079405 49.8457786874,378.989763061 52.918119576,408.477434113 57.9213394213,390.571375705 72.4346345402,374.968026003 70.0402533608,336.355860177" fill="#ffffff" fill-opacity="0.5"/>
    <polygon points="107.174049333,261.007642572 137.260149196,158.742969832 114.008838243,183.825573467 85.1718292601,236.806233425 0,190.636369751 48.7109883587,273.412541149 90.1097264453,272.210526855 157.70739589,324.717411741 124.499654803,265.328139121" fill="hsl(23.9995856848, 54.1184106948%, 47.8555511787%)" fill-opacity="0.798965351178"/>
      <polygon points="107.174049333,261.007642572 137.260149196,158.742969832 114.008838243,183.825573467 85.1718292601,236.806233425 0,190.636369751 48.7109883587,273.412541149 90.1097264453,272.210526855 157.70739589,324.717411741 124.499654803,265.328139121" fill="#ffffff" fill-opacity="0.5"/>
    <polygon points="210,297.142134005 129.712852018,291.339966379 167.533777979,378.123685938 51.0590040015,420 143.86910822,420 155.003794589,420 155.542803045,420 183.429956923,420 191.692221494,420 210,303.643110046" fill="hsl(31.1278949077, 55.2525635278%, 20.2647862988%)" fill-opacity="0.928223974173"/>
      <polygon points="210,297.142134005 129.712852018,291.339966379 167.533777979,378.123685938 51.0590040015,420 143.86910822,420 155.003794589,420 155.542803045,420 183.429956923,420 191.692221494,420 210,303.643110046" fill="#ffffff" fill-opacity="0.5"/>
    <polygon points="95.3855608488,258.299088798 68.0400237461,258.655615904 55.0082147678,216.71441202 20.2698800993,203.151030002 0,224.179037282 21.6214398299,267.777857517 7.96571521084,289.697642466 14.9258686011,288.213509779 14.9346956965,335.849976947 59.3493596417,340.647660163 87.7913349597,361.466042981 63.8336455771,267.575020168 78.541793097,220.325145803" fill="hsl(349.507874044, 70.003842303%, 69.0367138931%)" fill-opacity="0.864294728133"/>
      <polygon points="95.3855608488,258.299088798 68.0400237461,258.655615904 55.0082147678,216.71441202 20.2698800993,203.151030002 0,224.179037282 21.6214398299,267.777857517 7.96571521084,289.697642466 14.9258686011,288.213509779 14.9346956965,335.849976947 59.3493596417,340.647660163 87.7913349597,361.466042981 63.8336455771,267.575020168 78.541793097,220.325145803" fill="#ffffff" fill-opacity="0.5"/>
    <polygon points="76.9078026979,38.7206935662 49.9381051289,57.4108258362 0,54.4292139086 0,86.7298002798 0,126.474135445 50.3208913338,81.5636853424 31.8979863455,104.183670549 46.4815648258,172.350964039 51.3937720406,137.922489071 52.149894478,82.4849254769 80.1235041198,110.981548626 125.270994534,77.6536613858" fill="hsl(76.7557864445, 71.4099086967%, 18.510235658%)" fill-opacity="0.901853243036"/>
    <polygon points="210,9.36279404916 210,10.5094268107 188.456158458,0 148.48801285,0 176.161548015,19.5369992782 134.737702887,0 126.49032642,43.6216396862 161.311586372,64.548811687 191.771347946,85.0965279383 207.811960296,59.0444974578 210,31.2502442173" fill="hsl(18.6950195744, 66.8673292273%, 55.085549162%)" fill-opacity="0.95696355147"/>
    <polygon points="49.4326573778,23.2907533261 161.641811543,0 61.1284760476,0 0,4.38394355077 0,24.9002200007 0,38.0567695257 0,57.4326426712 10.5745171322,48.7330508271 34.0642900111,40.1076883804 70.341286394,119.316695434 55.821987149,51.6704912159 48.8162085624,29.8645464382 40.9435253625,27.7205709571" fill="hsl(81.8178481654, 69.4778763208%, 33.5429464738%)" fill-opacity="0.923045487069"/>
    <polygon points="164.239947794,115.02559019 132.16585599,130.814599554 106.105261865,108.399446851 68.1061335474,144.128868415 110.474149385,159.672611616 136.493947371,163.235843767 145.087769829,196.974530365 189.308124515,268.921699199 159.82973198,137.763985725" fill="hsl(47.4415217822, 48.2108603979%, 14.6028259606%)" fill-opacity="0.808676301259"/>
    <polygon points="199.313089547,17.1891052726 187.441604495,0 119.178979001,17.3609491635 191.7774152,0 149.668747046,0 95.3983674321,0 86.7922608485,0 61.9629900823,0 81.1900886145,19.2284800388 66.8153654134,28.7792197168 34.3656439188,37.9785678116 67.9126946907,35.3273211078 103.537532038,46.1620016654 155.522173653,8.58195331493" fill="hsl(40.2571533829, 78.9781717043%, 43.7968880655%)" fill-opacity="0.872813061591"/>
    <polygon points="154.812296829,382.757066445 112.866289917,371.020603761 57.2436739858,415.706427106 53.9344043721,420 57.5631818533,420 122.624075868,420 132.058713482,420 121.156099599,410.233660631" fill="hsl(34.3875743653, 86.8248236784%, 25.7474254835%)" fill-opacity="0.799665341134"/>
    <polygon points="162.659347433,46.6569044158 138.964444516,21.6175050095 138.623006168,56.082813809 113.879068199,72.1398766806 160.743896333,162.751004044 210,102.429255878 210,93.5318254033 210,24.7427521591" fill="hsl(8.66747464113, 82.4455453484%, 18.5846290246%)" fill-opacity="0.892452195432"/>
    <polygon points="110.39369964,352.664337475 118.496376552,320.198273848 159.043776443,261.821880155 68.8607341789,300.830777876 58.2138560196,325.834974624 0,338.426633015 13.7412311998,420 159.90097906,420 210,370.322114569 123.395086086,329.510187451" fill="hsl(23.3691382181, 77.9352068887%, 20.553300554%)" fill-opacity="0.902021670542"/>
      <polygon points="110.39369964,352.664337475 118.496376552,320.198273848 159.043776443,261.821880155 68.8607341789,300.830777876 58.2138560196,325.834974624 0,338.426633015 13.7412311998,420 159.90097906,420 210,370.322114569 123.395086086,329.510187451" fill="#ffffff" fill-opacity="0.5"/>
    <polygon points="170.307589816,74.5508937029 171.483830391,60.91022749 158.192399624,75.0362440069 97.5034060039,62.7452666957 150.757775688,107.431363215 157.515238036,101.789088869 210,200.548709146 175.533005871,57.7752381203" fill="hsl(348.384080746, 38.9111544907%, 37.2429874021%)" fill-opacity="0.718483833604"/>
    <polygon points="132.455562818,0 10.4912720976,55.1588085483 0,127.320247554 29.5909316989,126.5231332 70.3296236851,70.6802095517 48.2597796824,192.772642027 137.159947968,133.197207503 104.730993236,62.0023975846 107.026059562,36.6275887928" fill="hsl(20.398126693, 84.4331592937%, 43.1321811016%)" fill-opacity="0.892408052115"/>
    <polygon points="210,28.2721757697 177.935404123,26.1323023597 152.418411447,73.4199335472 146.149217326,99.7475505692 158.685078271,154.172232967 210,143.501531198 210,136.690351806 208.302415687,50.5534972043" fill="hsl(94.2657890059, 77.8153537698%, 45.7140102375%)" fill-opacity="0.946078076175"/>
    <polygon points="210,205.030387865 210,161.593461608 210,141.716291886 210,74.1718579146 169.642802428,53.8255412908 148.372919586,184.015445505 91.2523630271,310.906587597 141.072208604,304.960789714 210,247.440358895 210,213.099882927 210,150.870754846" fill="hsl(13.0262327644, 53.3951250966%, 43.2623065261%)" fill-opacity="0.923092388676"/>
    <polygon points="139.106176892,366.642176666 84.9445797017,356.530699903 80.3551066989,383.545365112 56.9172637309,382.459119127 46.1044256634,420 72.2026269379,420 99.6530472093,420 140.009198155,420 186.840930638,420 126.256266159,420 171.352487467,420 89.6576317595,417.464337452" fill="hsl(67.020595779, 67.8968119538%, 32.3359228015%)" fill-opacity="0.814893711595"/>
    <polygon points="73.896348279,95.9902508063 130.944696523,79.9527060178 147.537666753,45.8095534383 122.584877926,58.8530393538 82.0768927421,68.7255493991 52.4714518787,0 11.7747069334,39.1082405655 2.75024366005,63.1993214305 0,94.4143677479 58.8539371441,135.105026593 71.3775320553,185.131013406 76.1391988743,113.261650623 89.1403531354,122.651836928 138.944313068,101.656730108 82.4630424491,91.7413985226" fill="hsl(6.53144890217, 88.6330089717%, 58.6712654281%)" fill-opacity="0.904988327156"/>
    <polygon points="204.847515454,362.191349634 185.586273439,305.723743334 147.939585777,284.498916328 48.7286877715,338.424103281 126.340716667,366.013120688 89.1507442255,374.945028036 97.5349099865,402.225922703 145.930654037,420 205.261515464,420 206.010047974,419.052624419 210,355.259056865" fill="hsl(323.494753924, 58.3135476031%, 29.0542463247%)" fill-opacity="0.996385073042"/>
      <polygon points="204.847515454,362.191349634 185.586273439,305.723743334 147.939585777,284.498916328 48.7286877715,338.424103281 126.340716667,366.013120688 89.1507442255,374.945028036 97.5349099865,402.225922703 145.930654037,420 205.261515464,420 206.010047974,419.052624419 210,355.259056865" fill="#ffffff" fill-opacity="0.5"/>
    <polygon points="116.693652295,290.177744966 117.239262301,227.985655491 96.3445317368,207.170443088 93.2977769761,224.06469947 82.6642537528,222.348550739 71.9361849092,239.066568001 49.9300593935,322.522989594 88.0108619096,333.053397763 137.976943887,344.997425789 146.883293829,313.680825343 143.995677186,307.253968739 141.701300531,282.945100621" fill="hsl(144.53981427, 61.1105626729%, 46.5610698898%)" fill-opacity="0.904723554887"/>
      <polygon points="116.693652295,290.177744966 117.239262301,227.985655491 96.3445317368,207.170443088 93.2977769761,224.06469947 82.6642537528,222.348550739 71.9361849092,239.066568001 49.9300593935,322.522989594 88.0108619096,333.053397763 137.976943887,344.997425789 146.883293829,313.680825343 143.995677186,307.253968739 141.701300531,282.945100621" fill="#ffffff" fill-opacity="0.5"/>
    <polygon points="53.2929681372,97.125746244 4.90010137,148.110106071 19.9656952569,198.600847161 17.8170747245,199.769870809 17.6253075116,202.484356694 50.2538420027,307.565001555 75.7779063279,256.447096127 95.7033942322,218.573183118 93.3430275799,214.03723527 131.197874484,217.601551471 39.139498791,196.770914179" fill="hsl(4.42340253502, 81.8892761299%, 33.7401007214%)" fill-opacity="0.945804570615"/>
    <polygon points="210,105.454598517 210,134.734747861 210,103.5126602 206.172136127,119.993480866 195.62784009,147.501097153 60.7996882518,235.018565134 206.67189827,162.471895615 210,249.679181561 210,77.8149106426" fill="hsl(96.1854470125, 71.4227365647%, 28.5935143236%)" fill-opacity="0.837488448546"/>
    <polygon points="119.422537114,0 112.694679057,37.1506244289 109.468576615,39.6570736794 88.4770895403,83.8778133062 113.935749328,109.612905127 130.934077902,82.5206639908 137.254148398,67.5039961326 152.97717227,60.3973678404 151.873528623,0" fill="hsl(96.8489370127, 78.1911197239%, 41.3134434351%)" fill-opacity="0.944125234514"/>
    <polygon points="162.311841958,38.8928720639 138.02446867,33.8123630368 92.8818656948,6.19027053862 26.1019726985,0 41.9242582677,74.7019455176 53.8109731993,186.517298656 117.043261953,169.285663114 127.433602202,151.90521547 147.447796362,115.761239126 153.876326884,107.85109622 175.067385927,100.44198066 206.606777776,78.3245893004" fill="hsl(22.8889733218, 76.5685198056%, 3.95890546835%)" fill-opacity="0.90866481821"/>
    <polygon points="175.146806267,62.7924357864 138.910832544,0 132.729562098,141.502491132 127.899931032,116.518250256 93.6778814914,95.4786574273 53.1737364756,101.023938578 93.8107469727,154.211777376 81.0378574736,228.020799956 119.598999021,240.32192696 154.474651142,193.678559375 150.882595709,162.549210633 205.516660999,166.422969466 200.704919001,85.5147307464" fill="hsl(12.7483703257, 52.7433993715%, 12.6708025111%)" fill-opacity="0.900078563915"/>
    <polygon points="210,167.760505141 130.419023792,186.985854129 98.6008169797,190.324515566 91.5566579455,239.232643026 114.763348927,266.560884267 139.908238494,230.711016073 195.429492207,262.507218991 163.054013225,223.708052095 185.223681697,213.528562337" fill="hsl(96.7823936763, 63.9957268148%, 36.5810767149%)" fill-opacity="0.925919807557"/>
    <polygon points="192.829173322,245.454153544 72.8269438545,256.321719119 49.2658080185,282.93045042 45.3829018594,311.185355941 74.0871118926,344.402095601 40.7294511805,416.500024532 108.047751541,345.402523848 63.5588797966,420 70.5324316313,420 114.712134861,336.075520247 105.860914501,420 115.625496699,350.869573967 152.488717085,419.821559544 151.990083724,321.102086287" fill="hsl(91.2377411327, 76.959185778%, 38.952566458%)" fill-opacity="0.823476667522"/>
      <polygon points="192.829173322,245.454153544 72.8269438545,256.321719119 49.2658080185,282.93045042 45.3829018594,311.185355941 74.0871118926,344.402095601 40.7294511805,416.500024532 108.047751541,345.402523848 63.5588797966,420 70.5324316313,420 114.712134861,336.075520247 105.860914501,420 115.625496699,350.869573967 152.488717085,419.821559544 151.990083724,321.102086287" fill="#ffffff" fill-opacity="0.5"/>
    <polygon points="180.430801225,174.579784003 147.738914743,168.783879287 165.776897105,101.366837306 137.381085455,141.810850472 134.74260952,153.236611623 122.521217959,98.5732903993 125.628178945,178.099121663 66.5102339229,155.770773068 79.2076394603,185.301078584 74.3206734555,191.934075272 81.0826839567,223.376979314 111.281140526,227.078291085 141.337026479,215.117149013 210,216.896351583 181.331593461,192.526449694 194.668481492,157.417834065" fill="hsl(43.3987943621, 52.4922274078%, 24.3413444758%)" fill-opacity="0.930838653247"/>
    <polygon points="144.427388453,338.496947451 53.9635049717,355.017811846 0,306.583512215 0,378.80888802 38.5575421777,402.048528776 55.2823498892,365.273888733 57.8794459066,375.620004026 115.350698262,381.990593644 56.5951824349,354.867647655" fill="hsl(109.744332815, 72.2904723227%, 45.8760986985%)" fill-opacity="0.948157235292"/>
      <polygon points="144.427388453,338.496947451 53.9635049717,355.017811846 0,306.583512215 0,378.80888802 38.5575421777,402.048528776 55.2823498892,365.273888733 57.8794459066,375.620004026 115.350698262,381.990593644 56.5951824349,354.867647655" fill="#ffffff" fill-opacity="0.5"/>
    <polygon points="85.5375382917,123.401300184 20.676231228,186.39131274 0,189.083003327 0,238.263266446 0,265.290162354 0,307.916994553 0,261.689175108 5.48011935472,349.690009372 10.7471604587,319.401470832 85.732862507,274.504612684 36.1461575426,214.744715263" fill="hsl(24.0609585183, 62.3100350234%, 20.3186976266%)" fill-opacity="0.871879585018"/>
    <polygon points="210,294.120694286 203.101409203,336.914188725 197.839023034,314.602547812 154.829674868,290.126289364 100.311727008,331.675979684 196.36624161,344.780180527 184.895185243,380.056510055 201.901174501,342.081086002 207.075195905,420 210,392.016726678 210,420 210,381.920298102 210,342.186748025 210,343.633298645 210,227.405322877" fill="hsl(43.8568539943, 99.7416779772%, 30.6618454512%)" fill-opacity="0.961168170781"/>
      <polygon points="210,294.120694286 203.101409203,336.914188725 197.839023034,314.602547812 154.829674868,290.126289364 100.311727008,331.675979684 196.36624161,344.780180527 184.895185243,380.056510055 201.901174501,342.081086002 207.075195905,420 210,392.016726678 210,420 210,381.920298102 210,342.186748025 210,343.633298645 210,227.405322877" fill="#ffffff" fill-opacity="0.5"/>
    <polygon points="65.5880261449,338.547993021 31.2230958425,346.791580815 115.423487802,261.981859242 54.1297752876,275.402764379 0,332.00499655 0,394.125382806 14.872680592,377.522782939 51.3744763649,414.073641745 110.0069916,392.271330754 27.0951655698,350.711342463" fill="hsl(35.9316044842, 65.7730480896%, 36.4534188522%)" fill-opacity="0.968476362638"/>
      <polygon points="65.5880261449,338.547993021 31.2230958425,346.791580815 115.423487802,261.981859242 54.1297752876,275.402764379 0,332.00499655 0,394.125382806 14.872680592,377.522782939 51.3744763649,414.073641745 110.0069916,392.271330754 27.0951655698,350.711342463" fill="#ffffff" fill-opacity="0.5"/>
    <polygon points="93.5250776221,185.783861266 118.275125135,157.198691812 84.164095295,138.46059646 61.1601666077,182.27418496 0,108.038877763 63.2474751199,202.802097429 42.2351588288,226.395618012 128.461875445,287.497748091 79.6457033991,204.465021829 71.769740154,201.536806073" fill="hsl(22.1201515072, 56.0275149249%, 41.0332319449%)" fill-opacity="0.87514656766"/>
    <polygon points="210,158.000600107 145.531709809,183.79911146 169.423317818,219.049835368 159.367566429,256.729503732 210,234.344452524 210,324.865287969 210,251.938530205 210,255.240960997 210,243.576481355 210,223.005682398 210,159.728387891" fill="hsl(39.1060833145, 66.3957558477%, 40.0138582537%)" fill-opacity="0.887603483826"/>
    <polygon points="68.6618449474,107.092945943 62.9272622207,71.856605996 69.1508747093,0 12.39463528,99.944841842 0,49.4126941915 0,127.606385369 0,157.606568367 19.0213462997,120.05609683 30.7226422174,147.186806469 26.2874183745,115.306978733 63.4248111671,105.12350908" fill="hsl(118.344686031, 54.8440571591%, 19.0388575608%)" fill-opacity="0.902030635276"/>
    <polygon points="210,109.773138072 210,103.573480218 210,31.5406873177 159.083444845,113.153158051 81.5901477756,0 121.467120278,86.0516794305 148.437514299,121.105348453 130.522973528,155.659342767 149.593014389,165.217777241 180.835678038,161.631978815 210,123.820701312 210,75.7208920588" fill="hsl(36.4790650582, 61.2565019556%, 24.6938813812%)" fill-opacity="0.877302341082"/>
    <polygon points="210,88.015179303 187.618313061,63.9619230141 109.982715315,101.217192366 76.986621638,93.1540383542 62.5844854932,188.897163336 89.3258220177,165.762833267 133.707760577,171.469144074 179.923330236,175.152833686 153.717077463,58.6434485554" fill="hsl(10.3671838259, 68.8213771558%, 56.9229595702%)" fill-opacity="0.936372318122"/>
    <polygon points="69.0468861242,202.596976608 80.2548642603,176.661923374 81.8534094074,167.734843741 74.6441605197,154.411260275 56.6607774845,210.895074541 34.798216575,171.745110997 24.3825075176,168.760195586 0,208.783503633 0,204.532177908 0,266.771838553 162.297988847,272.253013445 148.836433893,206.848646729" fill="hsl(15.8245053366, 74.0802832544%, 26.8159923978%)" fill-opacity="0.851823977129"/>
    <polygon points="201.070166676,316.413836765 171.834893672,210.326170879 171.405664328,321.024428585 136.74518372,296.369859969 117.74855708,302.299314547 151.558095092,323.109085535 163.412371153,385.85478505 210,376.724966803 210,373.990490755 178.701503902,318.74860883" fill="hsl(79.9398892273, 88.652874956%, 24.304026298%)" fill-opacity="0.781092489452"/>
      <polygon points="201.070166676,316.413836765 171.834893672,210.326170879 171.405664328,321.024428585 136.74518372,296.369859969 117.74855708,302.299314547 151.558095092,323.109085535 163.412371153,385.85478505 210,376.724966803 210,373.990490755 178.701503902,318.74860883" fill="#ffffff" fill-opacity="0.5"/>
    <polygon points="186.903608086,7.03051377136 165.897581104,0 128.289322448,2.69479236454 112.399330517,0 89.4922807284,115.420298581 186.223579702,88.4336495002 210,122.748481555 210,66.6247662106" fill="hsl(95.8506984561, 79.8220765949%, 10.6125088364%)" fill-opacity="0.882728786404"/>
    <polygon points="51.5573126249,310.708288061 2.21303297203,380.21049237 0,382.246277264 0,315.842079193 0,385.277993221 0,420 43.5161774383,420 0.383751178069,366.361725755" fill="hsl(71.1996352498, 62.3649163141%, 49.1426425946%)" fill-opacity="0.906169065757"/>
    <polygon points="108.472706687,20.3497667074 0,104.662876953 24.8315982437,103.239449582 52.2110575172,148.20547133 71.9909193781,189.533615838 185.783264609,161.294323759 117.980786849,94.3556663814 160.303205341,0" fill="hsl(29.338227204, 64.6448913523%, 22.5062723987%)" fill-opacity="0.93085020954"/>
    <polygon points="83.9413321382,250.310421127 94.0068590909,234.184219723 118.181864966,192.477675308 89.9950039895,145.509924918 74.4023983305,201.874447545 45.1913777072,226.576525534 48.3396104265,263.957392718 0,278.97340106 17.4223190575,321.705405636 6.29050024595,340.325099884 22.7402572893,330.969969361 69.4557513027,395.140465441 69.0954261655,276.166444297 117.980808654,268.443996195" fill="hsl(47.6561251121, 27.9302106046%, 47.3986003938%)" fill-opacity="0.815522727964"/>
      <polygon points="83.9413321382,250.310421127 94.0068590909,234.184219723 118.181864966,192.477675308 89.9950039895,145.509924918 74.4023983305,201.874447545 45.1913777072,226.576525534 48.3396104265,263.957392718 0,278.97340106 17.4223190575,321.705405636 6.29050024595,340.325099884 22.7402572893,330.969969361 69.4557513027,395.140465441 69.0954261655,276.166444297 117.980808654,268.443996195" fill="#ffffff" fill-opacity="0.5"/>
    <polygon points="191.658571597,224.959708117 200.300294049,178.456705519 159.672366455,256.645995625 124.782288161,226.258463204 120.617688004,305.914632615 148.923099382,316.748823917 210,399.971782244 210,224.087045296" fill="hsl(41.194644575, 83.5512323915%, 32.2831812169%)" fill-opacity="0.995028128515"/>
      <polygon points="191.658571597,224.959708117 200.300294049,178.456705519 159.672366455,256.645995625 124.782288161,226.258463204 120.617688004,305.914632615 148.923099382,316.748823917 210,399.971782244 210,224.087045296" fill="#ffffff" fill-opacity="0.5"/>
    <polygon points="210,49.0746136974 210,0 171.050257122,46.4020707646 182.50253035,61.4264802372 181.544647894,93.8806995485 190.258683887,91.2807087244 208.660249907,96.6919578346 210,90.2493770553 210,82.4022103313 210,78.9867116629 210,60.3597174052" fill="hsl(60.1665598368, 58.4943057661%, 3.71773486205%)" fill-opacity="0.888553971907"/>
    <polygon points="186.441019314,0 135.845203431,0 116.238992589,0 78.7420789007,0 101.708121072,37.832469902 152.961073034,88.1960873853 210,51.3177174285 210,0" fill="hsl(45.0903804825, 61.9546474152%, 44.8171796686%)" fill-opacity="0.833788152512"/>
    <polygon points="210,50.4116462623 161.062174847,55.3744370937 187.576755009,42.0075208467 149.261737423,51.9831498441 152.840411432,0 39.684487675,0 24.1518322143,115.692103725 131.333849577,84.72094046 181.537078231,110.958042853 181.068759747,47.2083010619" fill="hsl(58.9881081779, 74.1570213165%, 27.8596828267%)" fill-opacity="0.831794795093"/>
    <polygon points="45.008088639,98.6031916973 40.9154678039,168.92150959 43.6643796379,233.137256315 8.55157362892,188.06639776 0,228.819987877 29.4492219668,250.237466381 41.1697823622,243.898411703 129.6440271,413.828632967 125.993983458,327.658689327 101.147855285,285.481394383 90.9655058754,260.367977132 106.304617328,243.538552183 78.0179677191,231.089931094" fill="hsl(93.5637777393, 57.4796881704%, 47.8250755378%)" fill-opacity="0.941921288553"/>
    <polygon points="159.235312311,371.177267401 138.99481298,288.746616592 88.4988660738,353.281119899 16.1451621113,304.013738864 62.5528444622,377.941204323 52.9110640227,381.030579016 21.2619309635,388.695251044 64.1209438557,386.872261893 8.25495881395,420 69.716270428,391.628115934 78.0530661147,387.56277463 106.326788528,420 138.784784904,418.093322442 145.630051502,415.727302388 76.30617599,380.27152803" fill="hsl(70.5815445722, 81.0777315296%, 64.3533394059%)" fill-opacity="0.929857020862"/>
      <polygon points="159.235312311,371.177267401 138.99481298,288.746616592 88.4988660738,353.281119899 16.1451621113,304.013738864 62.5528444622,377.941204323 52.9110640227,381.030579016 21.2619309635,388.695251044 64.1209438557,386.872261893 8.25495881395,420 69.716270428,391.628115934 78.0530661147,387.56277463 106.326788528,420 138.784784904,418.093322442 145.630051502,415.727302388 76.30617599,380.27152803" fill="#ffffff" fill-opacity="0.5"/>
    <polygon points="202.299265251,258.393412955 167.242467609,277.206933172 131.906788763,178.063475902 74.0522295624,265.609145909 106.281664193,300.285202932 92.5001175381,352.599210208 135.990348022,420 140.78764723,334.629276235 170.333197528,331.1742986 210,344.605571428 210,318.617315566 210,286.221906929" fill="hsl(26.2809917463, 56.292583576%, 11.337320244%)" fill-opacity="0.912712271373"/>
      <polygon points="202.299265251,258.393412955 167.242467609,277.206933172 131.906788763,178.063475902 74.0522295624,265.609145909 106.281664193,300.285202932 92.5001175381,352.599210208 135.990348022,420 140.78764723,334.629276235 170.333197528,331.1742986 210,344.605571428 210,318.617315566 210,286.221906929" fill="#ffffff" fill-opacity="0.5"/>
    <polygon points="64.2580107807,30.0602417091 121.991089706,0 29.5392947922,25.5714720579 23.7091817559,26.0118292865 0,0 0,141.643351499 2.82423919404,54.5028845943 40.2016213523,55.4372614409 153.819915934,68.8312950896 29.1009426756,32.466623221" fill="hsl(57.3134497753, 73.4362658181%, 11.8165163737%)" fill-opacity="0.839192357898"/>
    <polygon points="148.70990954,371.070852745 75.7207313222,317.081077987 69.2094781505,340.227547835 49.3967704719,361.631061339 15.4558851671,317.751650582 22.0241846607,370.648718145 18.987525588,406.254743008 17.7807173367,420 1.319793018,420 35.8916513083,420 86.9340900061,420 73.4962326988,395.857796897 90.2023253645,420 210,414.006635989 120.992586549,325.951034146" fill="hsl(75.9867371658, 81.513820384%, 45.03831678%)" fill-opacity="0.857062596135"/>
      <polygon points="148.70990954,371.070852745 75.7207313222,317.081077987 69.2094781505,340.227547835 49.3967704719,361.631061339 15.4558851671,317.751650582 22.0241846607,370.648718145 18.987525588,406.254743008 17.7807173367,420 1.319793018,420 35.8916513083,420 86.9340900061,420 73.4962326988,395.857796897 90.2023253645,420 210,414.006635989 120.992586549,325.951034146" fill="#ffffff" fill-opacity="0.5"/>
    <polygon points="114.223902512,219.889134431 82.200125027,265.561846647 45.9757919249,227.052074367 43.5104514923,269.956786966 81.6788906795,325.643241105 91.5728557719,328.70687003 110.15473801,402.142749789 134.078003549,398.827495876 111.167007368,331.276243372 149.85698472,288.696787329" fill="hsl(42.8287437696, 61.8803868008%, 42.8519822283%)" fill-opacity="0.772343179446"/>
      <polygon points="114.223902512,219.889134431 82.200125027,265.561846647 45.9757919249,227.052074367 43.5104514923,269.956786966 81.6788906795,325.643241105 91.5728557719,328.70687003 110.15473801,402.142749789 134.078003549,398.827495876 111.167007368,331.276243372 149.85698472,288.696787329" fill="#ffffff" fill-opacity="0.5"/>
    <polygon points="198.390614377,193.677613752 132.919590799,162.81250766 87.8947560059,158.771111159 37.8147251566,187.919911513 50.6568051108,196.327303576 67.5163423208,242.703608838 95.875816606,213.41119828 123.128684096,215.393586359 119.038546525,179.389455689" fill="hsl(62.3359257749, 55.7274323998%, 31.1664628639%)" fill-opacity="0.831389553766"/>
    <polygon points="210,158.937430166 191.920987365,126.520936057 179.085151583,93.643073406 160.501032674,149.2883289 134.088099841,118.419734383 126.824849503,183.24252375 138.217487912,184.541324985 168.328053022,196.54371815 180.313830504,270.854750656 210,256.436128608 208.431062288,209.846072773 192.662661913,178.033161808" fill="hsl(357.364699533, 86.1839351032%, 7.02718569773%)" fill-opacity="0.870143015733"/>
    <polygon points="210,70.5534199284 167.583185427,122.900973691 158.666656866,110.995622239 114.948270269,164.567220506 123.493396519,191.836845781 182.384093427,259.807619511 210,292.240979782 210,244.55403336 210,195.686464061 210,177.679521341" fill="hsl(62.3273678335, 89.9243265309%, 4.99615838011%)" fill-opacity="0.857535451212"/>
    <polygon points="171.080779169,371.724296277 177.426563392,349.204984092 101.013368894,328.82954974 91.2982090017,301.161499132 85.6544605059,335.420029342 65.8829795885,365.989745805 64.9937153933,420 102.58097934,407.937750337 210,398.363547624 122.354195607,336.620982292" fill="hsl(53.8286801748, 68.6727613278%, 61.8516765889%)" fill-opacity="0.809005993857"/>
      <polygon points="171.080779169,371.724296277 177.426563392,349.204984092 101.013368894,328.82954974 91.2982090017,301.161499132 85.6544605059,335.420029342 65.8829795885,365.989745805 64.9937153933,420 102.58097934,407.937750337 210,398.363547624 122.354195607,336.620982292" fill="#ffffff" fill-opacity="0.5"/>
    <polygon points="85.9727012106,118.521123715 68.415635223,110.026192525 32.3747376088,141.171540474 41.00370697,146.408684497 46.0995470447,202.86950796 140.795588902,207.295487227 103.983933133,80.7804080898" fill="hsl(356.912054096, 74.5837468818%, 13.8647684305%)" fill-opacity="0.897985728725"/>
</svg>
