<svg width="210mm" height="420mm" viewBox="0 0 210 420"
xmlns="http://www.w3.org/2000/svg">
<rect x="0" y="0" width="210" height="420"
fill="#ffffff"/>
    <polygon points="210,241.000332733 210,243.404172959 210,205.118438597 191.587755959,234.578852973 160.186725661,232.113246933 152.213086257,266.877654809 181.92077884,361.681525746 210,257.586775945 210,232.960918669" fill="hsl(69.3224936165, 79.7990099726%, 40.9903207089%)" fill-opacity="0.827484215863"/>
      <polygon points="210,241.000332733 210,243.404172959 210,205.118438597 191.587755959,234.578852973 160.186725661,232.113246933 152.213086257,266.877654809 181.92077884,361.681525746 210,257.586775945 210,232.960918669" fill="#ffffff" fill-opacity="0.5"/>
    <polygon points="134.55279494,257.998891862 148.088123007,160.787588766 103.193994062,210.372460101 49.2011302042,186.248177822 41.1826940402,296.67118121 81.8303332889,309.615042233 127.871439015,317.231899283 153.093835488,302.820047829 114.411472336,266.831779621" fill="hsl(26.9908413896, 76.7624118451%, 32.9784503555%)" fill-opacity="0.809141693404"/>
      <polygon points="134.55279494,257.998891862 148.088123007,160.787588766 103.193994062,210.372460101 49.2011302042,186.248177822 41.1826940402,296.67118121 81.8303332889,309.615042233 127.871439015,317.231899283 153.093835488,302.820047829 114.411472336,266.831779621" fill="#ffffff" fill-opacity="0.5"/>
    <polygon points="210,13.4141790546 181.31198851,44.7170264923 203.850641249,1.78861847514 168.570705512,0 171.453920066,49.6784189339 124.356943493,73.3464429654 166.543175266,118.017156209 187.615399438,108.031554662 210,60.7877489254 193.205105091,30.6766090324" fill="hsl(118.923326269, 72.0899859712%, 22.6001918399%)" fill-opacity="0.72390966694"/>
    <polygon points="40.9082259006,362.323933854 32.2285701442,252.888534734 12.081781162,368.706290632 0,385.670602951 0,391.431266824 0,420 8.99907605366,380.8509264 11.3826387002,385.907945071 39.1696816675,420 39.3192888335,420 112.922740248,355.005193793" fill="hsl(62.2521119301, 53.7950209616%, 16.9244360357%)" fill-opacity="0.915857914447"/>
      <polygon points="40.9082259006,362.323933854 32.2285701442,252.888534734 12.081781162,368.706290632 0,385.670602951 0,391.431266824 0,420 8.99907605366,380.8509264 11.3826387002,385.907945071 39.1696816675,420 39.3192888335,420 112.922740248,355.005193793" fill="#ffffff" fill-opacity="0.5"/>
    <polygon points="135.110865488,390.057322796 91.4133089766,387.284665088 23.9970722946,281.355301427 29.2374279267,401.23730307 50.8292729595,412.911566851 25.9737194692,420 8.66101768349,420 75.5052012087,420 116.018695755,420 168.205756439,413.43311037 137.456006138,386.242636329" fill="hsl(17.7372027911, 72.896366835%, 44.2352864811%)" fill-opacity="0.936592407255"/>
      <polygon points="135.110865488,390.057322796 91.4133089766,387.284665088 23.9970722946,281.355301427 29.2374279267,401.23730307 50.8292729595,412.911566851 25.9737194692,420 8.66101768349,420 75.5052012087,420 116.018695755,420 168.205756439,413.43311037 137.456006138,386.242636329" fill="#ffffff" fill-opacity="0.5"/>
    <polygon points="197.094272059,230.909511225 162.614500238,209.547152057 145.834725821,224.890965256 134.559268313,192.102687047 114.926789766,177.61478867 121.68264097,212.502701783 85.2593994913,168.937676392 100.566909509,214.748726521 75.7309341334,231.356952194 121.176102298,250.25925044 114.73910071,275.377788298 98.4335111787,342.275318725 136.613217412,242.313210449 169.408799481,295.363579026 207.011173989,323.031519175 143.3407534,237.76702942 209.345074749,165.117267723" fill="hsl(40.4585057051, 66.5200100092%, 19.6910140315%)" fill-opacity="0.863200587756"/>
    <polygon points="210,294.718409527 210,300.773066446 210,238.678517956 185.587031361,299.096396614 126.46470058,219.904511691 164.636719963,315.066764154 157.526351322,385.258169769 204.982355447,355.113002446 210,329.440950717 210,270.127184114" fill="hsl(57.6047714403, 40.6598894702%, 38.0988258776%)" fill-opacity="0.935024252418"/>
      <polygon points="210,294.718409527 210,300.773066446 210,238.678517956 185.587031361,299.096396614 126.46470058,219.904511691 164.636719963,315.066764154 157.526351322,385.258169769 204.982355447,355.113002446 210,329.440950717 210,270.127184114" fill="#ffffff" fill-opacity="0.5"/>
    <polygon points="87.9396212259,86.9123609548 106.774162121,46.8117320702 72.3183169087,68.6627270284 66.0920190893,0 38.0353938451,47.1283876368 31.0830712322,68.038841972 0,92.0280209374 0,105.491159462 0,149.343039253 0,129.162238462 37.1374427737,215.64428673 73.8535701826,123.766178203 128.521299834,140.967383975 99.6507795516,112.977583532 112.955634381,111.695770471 54.042574346,94.2394315383" fill="hsl(80.8494457152, 59.0104092005%, 42.7560243824%)" fill-opacity="0.967817853123"/>
    <polygon points="187.3981934,335.753181936 139.798423439,330.250827138 73.3194846043,323.231438431 93.183481447,364.71715938 11.3267633984,376.779248624 89.3965485417,407.262330694 118.350272547,419.119130013 142.993926275,420 142.548320034,401.507245218 129.93080749,386.362404208 210,369.78334172" fill="hsl(33.7558883233, 55.657693365%, 45.3952368034%)" fill-opacity="0.883059158916"/>
      <polygon points="187.3981934,335.753181936 139.798423439,330.250827138 73.3194846043,323.231438431 93.183481447,364.71715938 11.3267633984,376.779248624 89.3965485417,407.262330694 118.350272547,419.119130013 142.993926275,420 142.548320034,401.507245218 129.93080749,386.362404208 210,369.78334172" fill="#ffffff" fill-opacity="0.5"/>
    <polygon points="210,322.281079548 152.352988052,320.150367153 190.256766365,358.449662225 0,345.057900053 58.1826552323,420 175.608034281,420 210,396.164952286 210,374.436029581 210,356.314283764" fill="hsl(8.89252077491, 67.3476655842%, 31.5396673126%)" fill-opacity="0.98364089213"/>
      <polygon points="210,322.281079548 152.352988052,320.150367153 190.256766365,358.449662225 0,345.057900053 58.1826552323,420 175.608034281,420 210,396.164952286 210,374.436029581 210,356.314283764" fill="#ffffff" fill-opacity="0.5"/>
    <polygon points="208.385656393,325.47756446 210,242.319581269 206.99131865,285.998356423 184.178337437,311.918705421 154.55143587,348.56322711 192.486402413,377.666836682 209.95764563,374.226854341 210,360.624538247 210,318.990944866" fill="hsl(19.1532299193, 78.9127283976%, 40.2828433964%)" fill-opacity="0.916446161135"/>
      <polygon points="208.385656393,325.47756446 210,242.319581269 206.99131865,285.998356423 184.178337437,311.918705421 154.55143587,348.56322711 192.486402413,377.666836682 209.95764563,374.226854341 210,360.624538247 210,318.990944866" fill="#ffffff" fill-opacity="0.5"/>
    <polygon points="132.69769374,306.610970759 72.6098763442,309.718487894 69.7671023501,303.040824226 45.1719646104,280.382054801 0,241.443771632 0,323.769299691 0,347.270422038 43.0127732125,349.079408023 49.4605207635,340.059714232 103.555585733,299.885424571" fill="hsl(87.0571177717, 50.3465114812%, 17.9651202494%)" fill-opacity="0.946527239233"/>
      <polygon points="132.69769374,306.610970759 72.6098763442,309.718487894 69.7671023501,303.040824226 45.1719646104,280.382054801 0,241.443771632 0,323.769299691 0,347.270422038 43.0127732125,349.079408023 49.4605207635,340.059714232 103.555585733,299.885424571" fill="#ffffff" fill-opacity="0.5"/>
    <polygon points="149.417895801,0 142.615224315,0 105.761003419,0 35.4941141573,0 84.8126122339,0 109.081204982,27.9828129035 107.866652355,68.8057456128 148.76074417,59.0126616243 163.585426608,32.1218097958 210,21.1395759702 190.065824317,0" fill="hsl(59.0173808935, 77.1477763786%, 12.1805246565%)" fill-opacity="0.793106705638"/>
    <polygon points="126.242856799,0 102.244740103,6.73109299304 23.2470615923,0 35.6246388845,56.6630581679 0,149.108228464 80.0005244999,96.4807372587 65.990317023,227.109710787 96.483883482,91.5511041353 140.944514789,75.9620815846" fill="hsl(79.7330013616, 76.294896724%, 38.9935630198%)" fill-opacity="0.978184067939"/>
    <polygon points="61.2861329706,317.580119443 57.3971269776,295.326701726 29.1162694244,222.448409224 23.3213016935,299.944925778 0,338.187429824 9.79332042066,420 109.870419422,352.173749165 67.6708834729,328.447879483 129.72401274,286.030649547" fill="hsl(44.188586237, 65.1076585085%, 10.6007135649%)" fill-opacity="0.925607124771"/>
      <polygon points="61.2861329706,317.580119443 57.3971269776,295.326701726 29.1162694244,222.448409224 23.3213016935,299.944925778 0,338.187429824 9.79332042066,420 109.870419422,352.173749165 67.6708834729,328.447879483 129.72401274,286.030649547" fill="#ffffff" fill-opacity="0.5"/>
    <polygon points="100.303491643,367.176590997 160.110293943,352.852601674 66.2342746122,311.317149356 0,377.615347552 79.3359701853,420 94.6935755157,420 135.017178476,420 91.0041631548,394.168810213 86.5662125056,369.513912786" fill="hsl(65.3261583405, 89.219851229%, 35.0722395921%)" fill-opacity="0.80951120387"/>
      <polygon points="100.303491643,367.176590997 160.110293943,352.852601674 66.2342746122,311.317149356 0,377.615347552 79.3359701853,420 94.6935755157,420 135.017178476,420 91.0041631548,394.168810213 86.5662125056,369.513912786" fill="#ffffff" fill-opacity="0.5"/>
    <polygon points="210,176.997959315 178.025837107,208.159796116 178.376603199,210.129330067 148.780106751,201.866636776 148.375200674,284.830293891 210,252.865214416 196.375242644,221.110983714 210,227.894061494 210,195.257038607" fill="hsl(93.7587354519, 37.9166103128%, 12.8044424786%)" fill-opacity="0.836285105785"/>
    <polygon points="105.269392427,123.429726935 100.733299215,80.7814942554 90.6888337859,187.017419378 16.8503191316,205.500065088 69.6190386017,256.411679614 87.4649579663,324.3325817 104.439893771,218.223523728 115.73095452,221.591831287 193.420963686,273.078835514 137.595340834,200.412573552" fill="hsl(328.620969752, 55.244017871%, 28.3265290388%)" fill-opacity="0.987329548613"/>
    <polygon points="210,189.787777777 210,155.907878725 201.966577123,191.510777478 201.152953785,246.195105464 174.947972182,197.808879528 177.526269902,245.412830499 43.445312025,285.689111722 146.397118718,283.673004951 58.0804951646,372.196111002 210,291.809223245 210,239.234468672" fill="hsl(44.8026670923, 84.3105105363%, 49.0332521803%)" fill-opacity="0.946019174425"/>
      <polygon points="210,189.787777777 210,155.907878725 201.966577123,191.510777478 201.152953785,246.195105464 174.947972182,197.808879528 177.526269902,245.412830499 43.445312025,285.689111722 146.397118718,283.673004951 58.0804951646,372.196111002 210,291.809223245 210,239.234468672" fill="#ffffff" fill-opacity="0.5"/>
    <polygon points="210,154.907752096 146.505512843,193.574974699 157.329477125,249.201877633 90.0506836944,288.556839155 190.056978845,246.697097218 191.223984678,250.052447757 210,255.441018193 210,177.218592563" fill="hsl(39.3016472132, 70.9856585514%, 74.2857755798%)" fill-opacity="0.877948185678"/>
    <polygon points="111.695695116,395.166477829 119.015539449,377.649615382 96.757795622,417.96674736 61.8196594112,409.172175515 26.368718036,420 96.093637326,419.917765794 45.3988082222,420 83.5092652313,420 99.8037973265,419.663346834" fill="hsl(34.4143314007, 60.6230545023%, 30.2390796975%)" fill-opacity="0.921725413098"/>
    <polygon points="193.81258761,337.317277089 152.917008664,269.572384227 157.25684717,322.681887968 152.928438241,352.928832647 101.394186508,368.368062204 176.120075195,355.957250544 182.066597264,384.114859399 210,397.841156807 210,313.89833716" fill="hsl(117.903302396, 59.0023313389%, 29.0847744622%)" fill-opacity="0.933386551624"/>
      <polygon points="193.81258761,337.317277089 152.917008664,269.572384227 157.25684717,322.681887968 152.928438241,352.928832647 101.394186508,368.368062204 176.120075195,355.957250544 182.066597264,384.114859399 210,397.841156807 210,313.89833716" fill="#ffffff" fill-opacity="0.5"/>
    <polygon points="210,0 179.505012505,0 165.171214182,0 22.2001595012,26.2401145588 141.995206364,68.2627389563 156.119790684,84.6993306235 210,98.2634014889 198.922114175,40.7565555515 210,23.3597486936" fill="hsl(74.1661938883, 70.444058617%, 2.48794983842%)" fill-opacity="0.870662709002"/>
    <polygon points="142.788098439,17.099596552 102.505126673,28.9785320807 166.847889748,0 61.9832193278,0 58.1091937945,0 59.632666034,5.96005613856 10.8732034508,0 83.5451578893,43.2824321667 18.7176995416,137.108573113 85.4169462099,79.2982067719 112.020037778,86.5494036918 135.458027412,28.5041615705" fill="hsl(25.3943588686, 59.2864648418%, 45.0827948418%)" fill-opacity="0.816525884364"/>
    <polygon points="210,306.315231186 210,275.987789857 183.419818614,339.981528319 157.909552485,326.409009022 178.036105971,343.327648336 157.365717118,353.814016912 146.473828834,420 173.067731301,378.755193783 210,420 183.89604647,343.057732785 210,322.605262136" fill="hsl(63.8471032094, 62.9286435379%, 59.0836999651%)" fill-opacity="0.914620716628"/>
      <polygon points="210,306.315231186 210,275.987789857 183.419818614,339.981528319 157.909552485,326.409009022 178.036105971,343.327648336 157.365717118,353.814016912 146.473828834,420 173.067731301,378.755193783 210,420 183.89604647,343.057732785 210,322.605262136" fill="#ffffff" fill-opacity="0.5"/>
    <polygon points="38.5213583106,377.337821163 5.31358376948,372.840251491 10.4742972757,401.851475449 0,420 34.8323129167,415.371494163 127.833675314,366.605264757" fill="hsl(12.2332393338, 41.4977221446%, 43.0226935614%)" fill-opacity="0.881321395003"/>
      <polygon points="38.5213583106,377.337821163 5.31358376948,372.840251491 10.4742972757,401.851475449 0,420 34.8323129167,415.371494163 127.833675314,366.605264757" fill="#ffffff" fill-opacity="0.5"/>
    <polygon points="196.371001223,195.676429694 108.979705391,182.133504434 90.1982284578,208.323228272 141.031420961,320.913385112 173.863777553,285.608835183 181.563028491,277.446202251 207.5961516,241.24874927" fill="hsl(26.7140074731, 76.4529333304%, 27.8256722101%)" fill-opacity="0.874129962291"/>
      <polygon points="196.371001223,195.676429694 108.979705391,182.133504434 90.1982284578,208.323228272 141.031420961,320.913385112 173.863777553,285.608835183 181.563028491,277.446202251 207.5961516,241.24874927" fill="#ffffff" fill-opacity="0.5"/>
    <polygon points="87.9813439111,79.3319509593 37.8879614717,110.632703456 0,129.954010344 0,147.95471108 0,184.999198233 0,189.127990075 57.203837178,153.69499522 66.9279164752,171.925252175 99.4894775768,203.725460772 143.508112762,103.69108942" fill="hsl(57.0049920535, 66.7667908193%, 58.0844304984%)" fill-opacity="0.866972914398"/>
    <polygon points="157.361721894,182.136923786 138.84943724,153.851235497 58.7634597063,140.069931769 72.3441221889,274.837223803 149.783093324,357.976686593 210,222.379257937 198.326799776,210.035376577 206.484287438,158.799658716" fill="hsl(19.052508704, 92.0176384297%, 26.9009301574%)" fill-opacity="0.930251708786"/>
    <polygon points="193.151808892,301.739414319 178.644774266,249.422785482 110.420001379,282.054044157 111.206814833,319.17731915 113.703670443,420 147.357043084,336.708435539 168.431609301,389.099366842 201.543758001,334.736185929 172.484040339,325.562094016" fill="hsl(87.154155355, 66.7672931369%, 57.4352996868%)" fill-opacity="0.903319679796"/>
      <polygon points="193.151808892,301.739414319 178.644774266,249.422785482 110.420001379,282.054044157 111.206814833,319.17731915 113.703670443,420 147.357043084,336.708435539 168.431609301,389.099366842 201.543758001,334.736185929 172.484040339,325.562094016" fill="#ffffff" fill-opacity="0.5"/>
    <polygon points="210,149.478393627 210,133.187155633 188.251290562,159.290851514 210,106.860636949 150.602679878,116.956201233 154.06437307,132.967953031 119.880163818,164.672831166 69.3389723942,254.824470882 172.845205649,207.731818557 210,289.441409667 210,199.728829244 210,189.879298288 200.448587025,154.57238611" fill="hsl(70.696720848, 67.0295347387%, 31.7145193039%)" fill-opacity="0.852407898906"/>
    <polygon points="210,136.590238698 210,125.075850901 173.04636056,92.7371302652 169.346791486,113.73816381 149.551421432,144.169638164 76.976984407,138.765134639 143.950230991,192.732561136 173.333309854,294.704019661 183.811853163,177.189532048 210,123.651681455" fill="hsl(12.6914692288, 68.951412255%, 56.0175017372%)" fill-opacity="0.924482758666"/>
    <polygon points="79.3732014265,338.292676473 57.7313057996,332.914126812 37.3708886296,379.297445443 0,336.003294747 11.9899524821,374.915679089 0,420 0.619535932068,420 0,420 37.4927729922,387.247015812 76.3234309279,420 183.771861768,388.057645278 54.3208525814,368.941363437" fill="hsl(79.4833570563, 56.5860502916%, 60.0727561865%)" fill-opacity="0.971164317899"/>
      <polygon points="79.3732014265,338.292676473 57.7313057996,332.914126812 37.3708886296,379.297445443 0,336.003294747 11.9899524821,374.915679089 0,420 0.619535932068,420 0,420 37.4927729922,387.247015812 76.3234309279,420 183.771861768,388.057645278 54.3208525814,368.941363437" fill="#ffffff" fill-opacity="0.5"/>
    <polygon points="210,265.695007548 210,167.104515323 153.875066219,285.564254589 82.02096906,275.689757577 72.4278890985,398.902813789 157.956734679,374.173669226 176.075501392,310.630169409 210,335.250835112 210,306.856737205 210,219.234520129" fill="hsl(25.6966716419, 80.7151715454%, 66.2004002502%)" fill-opacity="0.852729237112"/>
      <polygon points="210,265.695007548 210,167.104515323 153.875066219,285.564254589 82.02096906,275.689757577 72.4278890985,398.902813789 157.956734679,374.173669226 176.075501392,310.630169409 210,335.250835112 210,306.856737205 210,219.234520129" fill="#ffffff" fill-opacity="0.5"/>
    <polygon points="210,70.798046335 210,55.2840541159 210,11.9028026117 203.822732636,22.2583052309 156.415195596,62.0864126016 122.599326887,38.2191566437 55.2241975599,62.1312441417 102.309343571,128.679049718 169.000115318,90.3147478472 198.654328606,127.980137874 210,166.479018884 205.788345793,78.7329019721 210,62.1387225821" fill="hsl(70.0736575961, 80.4082251262%, 34.4901641995%)" fill-opacity="0.891018844909"/>
    <polygon points="210,362.72974253 210,304.560344536 201.753333892,361.063480236 127.162264325,383.618397069 110.552276351,419.511247626 210,402.599828225 210,420 210,420 210,396.637143974 210,354.827036791" fill="hsl(101.518416606, 62.5043939387%, 13.0274637198%)" fill-opacity="0.950010517922"/>
      <polygon points="210,362.72974253 210,304.560344536 201.753333892,361.063480236 127.162264325,383.618397069 110.552276351,419.511247626 210,402.599828225 210,420 210,420 210,396.637143974 210,354.827036791" fill="#ffffff" fill-opacity="0.5"/>
    <polygon points="210,239.465840786 210,231.582517573 210,184.840058373 198.923482212,202.046098224 164.489100315,231.871588647 189.284623676,294.223163555 133.623359765,301.928714774 150.664665152,332.450211956 186.470490045,346.271461665 210,309.562202605 210,259.367989578" fill="hsl(55.3744140938, 92.4292273045%, 43.0933631118%)" fill-opacity="0.860196345081"/>
      <polygon points="210,239.465840786 210,231.582517573 210,184.840058373 198.923482212,202.046098224 164.489100315,231.871588647 189.284623676,294.223163555 133.623359765,301.928714774 150.664665152,332.450211956 186.470490045,346.271461665 210,309.562202605 210,259.367989578" fill="#ffffff" fill-opacity="0.5"/>
    <polygon points="137.815113081,256.425325995 151.179026184,167.176113488 102.248485188,254.08076388 0,232.139630622 0,253.186857074 63.5481596443,286.524930571 75.8249814612,299.796123154 82.7040145411,315.599950054 97.2407260572,374.30063777 108.72704431,327.18318306 135.524825679,308.857899795 128.972570526,298.427575025 198.638914703,288.936285189 210,279.589873791" fill="hsl(92.3627187267, 35.6265737317%, 62.2805213064%)" fill-opacity="0.98660591939"/>
      <polygon points="137.815113081,256.425325995 151.179026184,167.176113488 102.248485188,254.08076388 0,232.139630622 0,253.186857074 63.5481596443,286.524930571 75.8249814612,299.796123154 82.7040145411,315.599950054 97.2407260572,374.30063777 108.72704431,327.18318306 135.524825679,308.857899795 128.972570526,298.427575025 198.638914703,288.936285189 210,279.589873791" fill="#ffffff" fill-opacity="0.5"/>
    <polygon points="162.506446679,60.6834698964 75.5041782941,86.1074876629 39.4175075376,0 33.507304984,60.7549562626 0,59.5895088134 19.0774884141,113.404812334 57.6027708755,122.523564231 36.9909730408,173.045458664 63.6477309455,185.532730301 210,144.90097718 147.572567242,84.4533985107" fill="hsl(54.8354342834, 87.0752132614%, 26.7540612555%)" fill-opacity="0.902023423626"/>
    <polygon points="183.576763085,112.952580317 132.18871222,103.896260668 132.374731779,98.93932079 83.864465662,9.79598088005 43.7399615806,146.72052518 108.696590056,185.370832408 49.890461315,194.609849627 11.7855894801,256.075699773 82.1914615215,275.189298815 111.946163488,306.40600154 187.052175047,206.422417078 210,162.833011713" fill="hsl(77.5175978681, 49.4583320635%, 20.3996570071%)" fill-opacity="0.936413870041"/>
    <polygon points="200.885670062,11.2185678327 206.106769916,0 164.618890891,0 181.355126082,0 180.077425999,10.3212974232 176.272018005,9.92044694124 148.220875048,13.7226047852 104.510932119,81.3353819156 177.970676808,125.041668795 207.107055502,25.8792758379 202.681364267,17.0596682895 210,0" fill="hsl(61.3650017676, 86.0414719084%, 29.3400395638%)" fill-opacity="0.907877356745"/>
    <polygon points="129.010694307,357.10041629 99.5954679987,346.540010578 76.8320377818,305.241060231 20.6312352143,301.122332848 33.6350841929,340.187691711 63.8085662104,376.981985325 0,402.632911691 135.585257986,420 94.4490894812,396.636384339 148.017764169,401.343696647 87.1007887442,359.809081488" fill="hsl(100.984735851, 63.0417276729%, 4.70874043769%)" fill-opacity="0.93376339273"/>
      <polygon points="129.010694307,357.10041629 99.5954679987,346.540010578 76.8320377818,305.241060231 20.6312352143,301.122332848 33.6350841929,340.187691711 63.8085662104,376.981985325 0,402.632911691 135.585257986,420 94.4490894812,396.636384339 148.017764169,401.343696647 87.1007887442,359.809081488" fill="#ffffff" fill-opacity="0.5"/>
    <polygon points="171.705645312,336.272793446 120.59024934,354.424172347 124.730639232,382.997110413 119.352856343,385.009440842 101.700477974,398.68978907 51.350666509,420 91.1710768937,420 119.042331045,420 135.499853248,393.81890145 173.262472944,368.458932833" fill="hsl(22.6631075889, 33.4097984234%, 43.1813136838%)" fill-opacity="0.899005333902"/>
      <polygon points="171.705645312,336.272793446 120.59024934,354.424172347 124.730639232,382.997110413 119.352856343,385.009440842 101.700477974,398.68978907 51.350666509,420 91.1710768937,420 119.042331045,420 135.499853248,393.81890145 173.262472944,368.458932833" fill="#ffffff" fill-opacity="0.5"/>
    <polygon points="140.162678843,151.244155149 160.998902812,122.434291418 71.3466819712,150.550327655 57.1432737985,147.416561791 53.6062398017,174.973698176 10.1950895131,191.623742472 94.7385278033,329.360164612 87.1465902483,197.462943553 104.503393085,196.380512018 136.580019965,201.773041722 75.6568164619,176.014059883" fill="hsl(24.9885784562, 78.8986310341%, 15.2973015295%)" fill-opacity="0.905137267992"/>
    <polygon points="156.532410151,28.0529051331 92.2201944243,45.6200370308 117.018051387,12.6686100157 91.1871837622,46.0341698445 97.0667425362,28.5660428283 94.5106917591,0 60.1423463551,25.1330968186 62.5138577918,47.5577896853 13.6361051356,88.2469139088 43.9626876229,76.5278727599 60.1366689058,73.9320946259 123.624909757,131.191857802 135.224827507,102.415172891 171.768303326,86.6433560015 146.412122762,23.3192299967" fill="hsl(44.7638536097, 85.3737139496%, 36.8042645147%)" fill-opacity="0.983530447376"/>
    <polygon points="142.322686346,271.46943061 113.611860363,254.944215068 110.795070801,231.809865725 61.5145053934,252.472893705 60.0830144353,276.207433172 49.055731764,299.660899029 74.2612467833,321.868391231 94.7543035817,324.88314443 168.528793136,324.199013597 160.044411585,308.221181782 146.737434047,265.299535688" fill="hsl(11.1572607182, 85.7266982398%, 8.00972478633%)" fill-opacity="0.816473868896"/>
      <polygon points="142.322686346,271.46943061 113.611860363,254.944215068 110.795070801,231.809865725 61.5145053934,252.472893705 60.0830144353,276.207433172 49.055731764,299.660899029 74.2612467833,321.868391231 94.7543035817,324.88314443 168.528793136,324.199013597 160.044411585,308.221181782 146.737434047,265.299535688" fill="#ffffff" fill-opacity="0.5"/>
    <polygon points="90.6472888795,15.1450262942 0,2.85950018449 0,98.5223133267 6.09578683763,154.179356673 76.8193537146,119.818960749 98.5693001221,68.6009022202 114.145601279,64.7514270768 86.418330332,5.25151542891" fill="hsl(41.9751120608, 50.0557973814%, 47.8961384365%)" fill-opacity="0.831963330452"/>
    <polygon points="210,0 206.983114451,0 152.232941824,0 152.618352691,18.0087626433 109.656321684,24.2743351344 68.7651671914,53.410019974 160.08565327,44.647063943 186.623788156,88.6039284435 197.338036081,156.00664878 210,182.179917074 210,83.3358569877 210,24.7452459149 210,0" fill="hsl(50.8148616029, 49.6454321164%, 49.9217436993%)" fill-opacity="0.818749596146"/>
    <polygon points="210,0 188.327794594,13.29734927 161.071214544,32.3929689942 118.043367725,0 126.67122012,34.1097752451 109.202142071,43.2308506456 154.89391997,75.0693705371 207.236070338,98.0461472568 210,97.9625219159 149.566429228,51.5055464738" fill="hsl(67.9115059727, 64.0291711901%, 29.5956839876%)" fill-opacity="0.750879091655"/>
    <polygon points="120.015040627,160.078366016 118.743487486,153.918839337 104.792274998,76.1687135711 83.8705311511,170.236776825 50.301188545,264.963264823 94.63993056,231.392505654 118.213840885,221.886042679 139.521759263,208.260458436 194.367609983,221.324833865 140.224098892,171.42973694 190.361435271,174.37803838 191.254799676,43.1377779037" fill="hsl(85.7026677348, 87.6521376859%, 32.6771020579%)" fill-opacity="0.788884570176"/>
    <polygon points="159.635606491,357.783879563 194.149872206,347.895188734 89.3909253937,369.79547785 117.271082385,267.429138337 77.34335404,354.939270815 41.4526049165,293.881885416 61.2642792435,351.704395157 2.25507352908,403.496654857 4.52509046968,406.688935999 83.9098536578,378.195536884 97.8994568589,420 143.580297164,420 210,420 210,420 161.508563273,374.920789788 147.430719754,365.790047839" fill="hsl(30.5423137782, 60.0916241802%, 39.7865963487%)" fill-opacity="0.944104576858"/>
      <polygon points="159.635606491,357.783879563 194.149872206,347.895188734 89.3909253937,369.79547785 117.271082385,267.429138337 77.34335404,354.939270815 41.4526049165,293.881885416 61.2642792435,351.704395157 2.25507352908,403.496654857 4.52509046968,406.688935999 83.9098536578,378.195536884 97.8994568589,420 143.580297164,420 210,420 210,420 161.508563273,374.920789788 147.430719754,365.790047839" fill="#ffffff" fill-opacity="0.5"/>
    <polygon points="62.7930810256,393.194340724 75.6581591748,321.022170559 30.9960367729,371.03213049 41.5328794717,392.302449406 15.741603168,420 42.6938361428,420 73.0789476832,417.760094974 135.941264711,399.822660815 91.0516868651,365.916225955" fill="hsl(16.253407013, 64.4208434046%, 25.4067742029%)" fill-opacity="0.825931346165"/>
      <polygon points="62.7930810256,393.194340724 75.6581591748,321.022170559 30.9960367729,371.03213049 41.5328794717,392.302449406 15.741603168,420 42.6938361428,420 73.0789476832,417.760094974 135.941264711,399.822660815 91.0516868651,365.916225955" fill="#ffffff" fill-opacity="0.5"/>
    <polygon points="118.133549119,390.723066928 155.209253784,358.43413388 112.434221372,341.690400033 82.0241131926,393.395391832 47.1241148078,330.442666756 74.9146936157,397.483701442 0,391.122855012 0,420 105.635410881,420 104.86753242,420 129.816544587,420 150.176835339,372.053624226" fill="hsl(51.8445995434, 68.7242439663%, 47.0412798085%)" fill-opacity="0.854144627896"/>
    <polygon points="72.1149539467,105.780605408 129.365038731,53.6792723814 45.8223373093,12.1464895143 32.9078447446,47.1371882242 0,52.1813524911 0,105.94365737 0,169.526932027 29.7979187433,145.111454438 28.0119309238,137.005752673 98.4411997359,141.856688478 22.1539965924,105.033293185" fill="hsl(336.822814642, 75.7394032059%, 31.916828921%)" fill-opacity="0.950262958668"/>
    <polygon points="210,94.5842601674 176.587924836,69.4893258229 173.8814267,155.549172293 127.721500552,171.576485446 129.467521686,173.845772051 118.50537441,193.187546502 210,189.267488325 210,166.682834446 210,154.922188375" fill="hsl(340.745282732, 47.4107309765%, 32.9845562352%)" fill-opacity="0.994797276907"/>
    <polygon points="177.39890343,161.6961629 167.772094538,131.179635866 70.0483540826,113.562324954 74.6789923581,206.607227318 122.332156457,204.353763038 87.297804341,270.206356121 117.658334804,337.575435328 132.469610147,207.298708159 210,244.004394654 210,198.34499879" fill="hsl(353.636299686, 64.5005726534%, 12.0754701235%)" fill-opacity="0.928340925088"/>
    <polygon points="143.089592386,138.338864114 107.009604427,141.092504041 60.975327691,157.029154622 79.8013491806,128.308103603 73.008508751,134.577302544 62.8653133928,69.5900649171 0,149.789177932 49.8373568224,168.627656928 0,258.469676964 112.138506686,216.771722665 124.56095601,203.317555923 74.1799504259,166.738960193 58.8849459343,152.267916087" fill="hsl(342.821769639, 92.2922246276%, 54.3776506015%)" fill-opacity="0.848604377939"/>
    <polygon points="187.590504675,250.91986707 151.014507739,205.278018829 34.2058473816,249.388220978 18.0542915214,133.948257583 0,190.758160194 0,297.606786087 27.8811543182,271.891719171 32.1661099044,280.573365553 101.003083405,370.125801596 83.6655306703,290.675252288 76.1081193248,184.041999189" fill="hsl(25.8019610617, 54.5563757016%, 45.868542617%)" fill-opacity="0.815559143572"/>
      <polygon points="187.590504675,250.91986707 151.014507739,205.278018829 34.2058473816,249.388220978 18.0542915214,133.948257583 0,190.758160194 0,297.606786087 27.8811543182,271.891719171 32.1661099044,280.573365553 101.003083405,370.125801596 83.6655306703,290.675252288 76.1081193248,184.041999189" fill="#ffffff" fill-opacity="0.5"/>
    <polygon points="205.974982716,0 178.842198929,0 159.854799763,0 147.175046096,0 102.199391302,0 59.3298578553,0 0,60.5876320204 34.6418608764,61.7773886687 105.620086535,65.8419274175 178.710209168,38.3877418136 190.115157879,57.0951625755 186.058751079,21.3520463085 210,13.9864736906" fill="hsl(74.6001769948, 67.5333335102%, 48.0281776753%)" fill-opacity="0.876186177469"/>
    <polygon points="210,390.679602259 175.171682927,392.507824756 148.856419844,277.808358305 159.047068813,385.568223126 51.7055353878,363.434345005 122.468054065,420 98.1925203637,420 152.457387004,420 168.87313242,420 210,401.238486076" fill="hsl(84.6098979124, 41.8176374621%, 39.2618159269%)" fill-opacity="0.919015195865"/>
    <polygon points="197.605198569,14.1638486549 167.369114201,0 125.987495059,0 165.503359879,60.9723528125 173.21325924,62.8837923296 195.727949316,125.390024942 191.309110121,73.9102042533 210,86.682161133 210,98.885256526 187.085830683,59.0004571796" fill="hsl(104.810846726, 60.3787522197%, 5.8213997538%)" fill-opacity="0.931970828691"/>
    <polygon points="152.721499029,254.860191205 52.7638059256,301.06238263 43.7762280845,292.749792002 0,357.491407818 15.5017758959,420 59.7376188541,420 41.0741482362,390.216656389 23.0852290494,367.043311013 48.7263208391,372.188653631 11.2015505206,340.322478358" fill="hsl(82.4250289783, 77.9343564975%, 36.5884387382%)" fill-opacity="0.92897812234"/>
    <polygon points="68.0751234947,125.144108951 65.6210195428,118.828019134 146.466574449,76.7392738963 49.3548745359,113.899684877 38.1189152576,77.3475426022 0,89.6082217961 0,91.7292245971 0,106.178183961 19.0902679584,159.16585459 53.7122332805,142.011353904 91.9879858595,107.958969855" fill="hsl(95.7473150313, 63.0617559724%, 22.4265576949%)" fill-opacity="0.817457934747"/>
    <polygon points="210,79.5428556774 184.519201459,75.3874269591 203.469170773,0 74.5793436487,76.5599104088 149.799240975,109.757032261 136.614332478,109.101498226 142.026247758,146.210746869 190.74504096,208.801873724 210,179.353371548 210,158.865501899 191.614670608,121.174786852 190.514615472,111.015980642" fill="hsl(97.4695799594, 59.7879527623%, 37.093230395%)" fill-opacity="0.888771884486"/>
    <polygon points="64.6271152303,221.233519747 76.6501356068,126.298327583 54.2687373549,203.160359133 0,149.974889871 32.0893431261,225.354362038 0,254.970172164 50.2067209037,279.118988857 58.7920990387,270.896587723 65.4152351107,244.688450766 80.1861717281,237.526907401 93.792185342,220.900186642" fill="hsl(357.99938991, 67.2258124803%, 39.8744271448%)" fill-opacity="0.975036713676"/>
    <polygon points="123.29249595,192.016864301 167.418883269,139.1437353 139.064684697,145.857884208 87.5886637892,171.652740483 0,127.325309658 18.7599753101,164.979219964 73.5388530309,191.473292117 60.0035817286,186.750835663 67.9797600293,198.900870746 73.1702875768,217.575150505 61.5630756789,236.033554409 95.575778544,211.791312535 126.603442077,264.392030775 210,302.23516843 108.492816445,205.492263392 143.940720094,211.417892416 130.067777758,192.612264877" fill="hsl(348.400323518, 87.0835381226%, 12.7791874277%)" fill-opacity="0.877669176033"/>
    <polygon points="53.9498689855,340.321076808 29.8965088564,312.589923045 3.06764264401,304.991702381 0,334.830675988 0,338.242721709 0,358.624311377 0,378.521716582 10.4708066719,387.105543842 30.7527930258,416.706841827 35.5318680071,410.428019437 67.1038871217,420 60.2498610503,384.735313326 32.8488803299,371.375184653 56.3471336866,340.94309026" fill="hsl(59.2367628888, 48.7641614801%, 25.3678083232%)" fill-opacity="0.905662531144"/>
    <polygon points="129.765859963,279.295441512 41.9376890459,323.296764162 0,380.222143682 18.241254106,360.006529509 0,409.583487583 94.0763596636,354.255586151 96.1805927376,336.403030899 80.2988355172,316.157198444" fill="hsl(44.131467718, 79.0525824346%, 18.3449665438%)" fill-opacity="0.892888120153"/>
      <polygon points="129.765859963,279.295441512 41.9376890459,323.296764162 0,380.222143682 18.241254106,360.006529509 0,409.583487583 94.0763596636,354.255586151 96.1805927376,336.403030899 80.2988355172,316.157198444" fill="#ffffff" fill-opacity="0.5"/>
    <polygon points="210,216.456377741 210,138.585295314 192.89830044,210.277617828 186.114063462,221.751193537 152.074760456,235.140381727 166.270857377,244.205653136 139.771343759,291.886257446 174.61369303,266.798647505 132.651548188,355.913046047 188.720791461,308.77008906 210,270.802223952 210,237.702089684" fill="hsl(65.3325286822, 45.0929193801%, 22.2758738173%)" fill-opacity="0.938947613355"/>
      <polygon points="210,216.456377741 210,138.585295314 192.89830044,210.277617828 186.114063462,221.751193537 152.074760456,235.140381727 166.270857377,244.205653136 139.771343759,291.886257446 174.61369303,266.798647505 132.651548188,355.913046047 188.720791461,308.77008906 210,270.802223952 210,237.702089684" fill="#ffffff" fill-opacity="0.5"/>
    <polygon points="207.167128134,345.758537955 122.858962094,335.847749837 112.954375818,338.79491793 89.9304494071,359.689363379 122.409674897,351.128682735 96.1390754861,386.735472476 111.771088133,389.620931595 150.656901421,356.839728201 199.914478945,317.670257537" fill="hsl(97.5968575804, 77.2517440307%, 16.3824266555%)" fill-opacity="0.883661413269"/>
      <polygon points="207.167128134,345.758537955 122.858962094,335.847749837 112.954375818,338.79491793 89.9304494071,359.689363379 122.409674897,351.128682735 96.1390754861,386.735472476 111.771088133,389.620931595 150.656901421,356.839728201 199.914478945,317.670257537" fill="#ffffff" fill-opacity="0.5"/>
    <polygon points="191.486508256,327.237817001 173.554007313,330.02736308 146.841735647,323.554535972 84.9062550929,405.520981568 115.460268079,420 157.769955304,408.05642076 161.552922775,420 178.846596901,379.513830532 210,397.286798118 210,307.242934563" fill="hsl(56.7797106841, 89.7526019137%, 31.2600507543%)" fill-opacity="0.786739764928"/>
      <polygon points="191.486508256,327.237817001 173.554007313,330.02736308 146.841735647,323.554535972 84.9062550929,405.520981568 115.460268079,420 157.769955304,408.05642076 161.552922775,420 178.846596901,379.513830532 210,397.286798118 210,307.242934563" fill="#ffffff" fill-opacity="0.5"/>
    <polygon points="210,96.1299986034 210,53.2152309226 201.905522676,78.5905400703 185.013826126,0 162.305837396,78.4783443126 150.021318561,75.7244029649 164.577206661,156.500583979 190.802470851,118.578601291 195.519722144,173.354608951 210,214.821333956 210,112.544390666 200.594873864,111.486790944" fill="hsl(80.6111153905, 81.3368092446%, 38.84485472%)" fill-opacity="0.955579134352"/>
    <polygon points="210,281.500728952 208.241052731,293.517957528 172.907404608,263.132555583 45.3534192155,346.069445907 148.97375296,359.329435701 148.876005502,363.713774545 131.607842844,420 164.778169341,420 200.430000036,420 210,402.180210816 210,267.406280666" fill="hsl(43.305080237, 57.0717175338%, 25.7087270707%)" fill-opacity="0.768459403693"/>
      <polygon points="210,281.500728952 208.241052731,293.517957528 172.907404608,263.132555583 45.3534192155,346.069445907 148.97375296,359.329435701 148.876005502,363.713774545 131.607842844,420 164.778169341,420 200.430000036,420 210,402.180210816 210,267.406280666" fill="#ffffff" fill-opacity="0.5"/>
    <polygon points="102.156264235,168.292425371 11.6963108035,206.417983063 4.42597238562,213.75156513 0,220.198383574 0,227.284525236 5.29489109879,252.282217873 0,333.058130716 51.7309682082,259.432321587 1.24674996608,223.602448551" fill="hsl(42.2444577161, 66.8897249638%, 46.5650783924%)" fill-opacity="0.778656212654"/>
    <polygon points="144.367589183,379.730248207 99.6846358756,327.868908223 80.8923250531,301.460829967 72.0602799323,342.618081649 34.9639883892,420 93.7620805819,420 108.366535747,420 49.5046472692,420 118.538031679,420 210,420 166.349555238,420 144.919311927,329.335994049" fill="hsl(34.8998612946, 64.268919009%, 54.4641149721%)" fill-opacity="0.712642607457"/>
    <polygon points="91.0176083334,165.571846006 38.5913814019,190.73709618 12.0308122473,227.592796799 0,243.810909118 0,259.41325239 0,273.815387203 0,284.507710979 52.026180614,300.412768805 71.1487250887,250.733530732" fill="hsl(96.1280260013, 74.3763067265%, 62.7005977894%)" fill-opacity="0.88798322153"/>
    <polygon points="128.265210514,0 93.4164730576,32.49274643 84.4869115929,3.62464044501 26.4571333441,44.1990881819 78.4965560904,52.3671977731 139.309193798,77.5621330059 188.966505056,73.684013093 191.142649901,0" fill="hsl(20.8095517848, 42.5323581371%, 32.8113099744%)" fill-opacity="0.903696254373"/>
    <polygon points="210,53.0036774868 152.223046631,105.785872469 105.121135893,0 81.368157476,0 93.9227292047,47.1979209018 107.930472771,104.97216818 19.6563720559,120.463425808 104.225392671,144.7965931 118.364980666,141.724376394 207.4782534,221.17115155 186.403492705,163.382526144 196.984845592,121.248395052" fill="hsl(59.5180220554, 48.9309257572%, 44.3716082974%)" fill-opacity="0.806478183396"/>
    <polygon points="89.7585974052,47.3141423982 69.8162814452,28.6791735745 34.0324666948,0 69.5129546202,63.1013628429 29.2118448799,66.1107424317 56.4902832584,87.5621676858 157.079298239,115.345224625 156.370794134,69.4660786555 86.4386129401,0" fill="hsl(71.5661008943, 79.2647497998%, 30.5907623257%)" fill-opacity="0.883980804771"/>
    <polygon points="210,194.186207717 135.813631017,197.314542724 210,335.239249169 207.253586452,239.412157703 210,240.741429569 210,228.044762897 210,182.71618702" fill="hsl(4.92048665819, 61.1916629703%, 7.78270533521%)" fill-opacity="0.80060413912"/>
    <polygon points="210,46.8841082634 142.440177417,83.4406600459 83.6958039694,200.572877657 156.355267803,192.345046397 186.024350305,176.242911207 196.476410696,153.781958401 210,147.713630363 210,116.137770146" fill="hsl(74.8017992818, 51.3519706738%, 0.0374752859694%)" fill-opacity="0.880259958349"/>
    <polygon points="185.458544933,203.127642906 134.993031996,147.649247545 66.6368348429,147.66620992 129.555994729,232.16741245 89.7079196643,339.326984586 205.1425441,273.71319911 210,234.031091847 196.434585215,224.871293415" fill="hsl(1.93781716123, 75.0240528772%, 15.4305520986%)" fill-opacity="0.854247514036"/>
    <polygon points="154.190647233,231.353278705 83.0655859043,238.115796258 83.3006749958,263.082499046 23.6620213444,194.523693478 97.0448798589,283.241675467 0,288.621984934 66.216973932,306.938384709 67.4300851048,311.561592698 87.3219716043,332.716540898 100.745457068,288.213285451 210,231.196987132" fill="hsl(59.0846311936, 75.3167103458%, 43.7927806567%)" fill-opacity="0.967953544767"/>
      <polygon points="154.190647233,231.353278705 83.0655859043,238.115796258 83.3006749958,263.082499046 23.6620213444,194.523693478 97.0448798589,283.241675467 0,288.621984934 66.216973932,306.938384709 67.4300851048,311.561592698 87.3219716043,332.716540898 100.745457068,288.213285451 210,231.196987132" fill="#ffffff" fill-opacity="0.5"/>
    <polygon points="144.092556848,174.780152281 117.743981006,122.795628183 130.523047722,175.987922415 100.564374992,143.740179139 56.178788807,195.642184993 124.240149037,191.60590842 139.033443237,201.016847072 170.096912636,198.358184854 210,221.361370124 210,152.61475331" fill="hsl(27.0838265707, 72.3554710858%, 26.9523028826%)" fill-opacity="0.852164345838"/>
    <polygon points="210,227.002730943 210,184.003205494 111.69005562,217.307040416 151.174660704,319.368916877 177.840716581,283.266244528 198.602857767,288.50676812 210,305.255496463 210,247.154925523" fill="hsl(96.446374231, 65.7938357666%, 9.28460450477%)" fill-opacity="0.847382717861"/>
      <polygon points="210,227.002730943 210,184.003205494 111.69005562,217.307040416 151.174660704,319.368916877 177.840716581,283.266244528 198.602857767,288.50676812 210,305.255496463 210,247.154925523" fill="#ffffff" fill-opacity="0.5"/>
    <polygon points="210,18.4054938987 210,26.7971421283 210,0 210,15.7615548581 172.904171302,25.4768433169 134.081409008,1.45290428689 159.568926478,95.6029367422 158.964676698,134.784939594 210,92.8071382426 210,85.2036587398 210,31.8646194654" fill="hsl(38.9128195052, 51.7156060733%, 13.4389311678%)" fill-opacity="0.731789563264"/>
    <polygon points="196.454006021,383.872432894 194.488071377,361.665752394 183.145603495,292.363175678 158.162789586,303.822130657 116.189876939,326.71963 97.9811033281,420 185.392512107,388.67862181 181.541288361,398.828420267 210,420 210,329.958221522" fill="hsl(54.7777824808, 48.2973167724%, 28.0721234752%)" fill-opacity="0.791239385224"/>
      <polygon points="196.454006021,383.872432894 194.488071377,361.665752394 183.145603495,292.363175678 158.162789586,303.822130657 116.189876939,326.71963 97.9811033281,420 185.392512107,388.67862181 181.541288361,398.828420267 210,420 210,329.958221522" fill="#ffffff" fill-opacity="0.5"/>
    <polygon points="210,291.151601509 169.421036878,283.135050458 147.28004405,336.431549577 156.542612797,399.151363387 167.787052929,383.428565142 184.751428361,368.01531885 210,420 210,320.733610738" fill="hsl(333.833609021, 61.0694648445%, 50.9256736189%)" fill-opacity="0.867050483359"/>
      <polygon points="210,291.151601509 169.421036878,283.135050458 147.28004405,336.431549577 156.542612797,399.151363387 167.787052929,383.428565142 184.751428361,368.01531885 210,420 210,320.733610738" fill="#ffffff" fill-opacity="0.5"/>
    <polygon points="201.089502995,307.609657957 181.635139998,304.970183764 159.203458938,319.692703084 174.4648485,346.012198734 163.306376447,413.242839087 163.252710062,415.658155745 198.770069,391.774197239 185.499530214,338.286041557 210,281.892839027" fill="hsl(48.9629839867, 62.6262846541%, 24.0579971013%)" fill-opacity="0.928432392576"/>
      <polygon points="201.089502995,307.609657957 181.635139998,304.970183764 159.203458938,319.692703084 174.4648485,346.012198734 163.306376447,413.242839087 163.252710062,415.658155745 198.770069,391.774197239 185.499530214,338.286041557 210,281.892839027" fill="#ffffff" fill-opacity="0.5"/>
    <polygon points="210,94.7690516801 210,82.9894902049 210,37.3626023387 197.218986167,50.3764209197 186.056135631,20.3399038187 158.793406992,36.605841297 112.338512751,32.5624669837 162.717882567,176.953092553 210,113.790787874 210,129.363379562 210,99.502373205 210,60.365362372" fill="hsl(66.8126261884, 79.8496575261%, 49.5933312452%)" fill-opacity="0.87661952765"/>
    <polygon points="177.840827923,64.8933281596 121.963827037,37.8419264706 121.143434264,125.044065037 68.6139799598,179.880892677 86.7853853449,185.002422736 121.539420549,191.951016317 141.674826454,146.843879808 210,104.483539055" fill="hsl(13.4441122202, 57.0578941663%, 37.0715523527%)" fill-opacity="0.926504399293"/>
    <polygon points="210,402.305936611 210,375.656355663 210,351.473530816 177.316620201,321.450706935 165.762974206,358.897569668 107.700791814,332.536516378 192.995441957,397.038224576 167.620043606,420 170.895301498,420 203.566894949,410.080068292 197.981580183,420 210,420 210,420 210,406.666054991 210,415.627045558 210,411.051577158 210,390.384757998" fill="hsl(69.6078025288, 69.92013327%, 40.656869373%)" fill-opacity="0.87356611979"/>
    <polygon points="34.6159551195,99.5523789864 54.3039293085,88.2517916369 65.7003205291,20.0754382303 21.5085505029,83.9525791485 31.8240330245,6.74554440358 0,84.8135640225 0,135.137825538 0,143.625311763 26.4849677005,173.412305356 42.0756711718,150.784586578 20.5886335895,103.640054706 67.2491205704,95.122006803" fill="hsl(76.8175662001, 81.7986053544%, 59.4371112393%)" fill-opacity="0.859093973111"/>
    <polygon points="12.1632343416,35.2186890913 11.6449862278,33.2716482791 35.833003268,0 22.4832823131,0 0,0 0,55.039877585 0,50.9999897382 0.768493521343,122.729439811 36.3965505419,149.956199586 31.780045784,103.30053381 74.847156456,136.5261678 69.007998447,112.532452192 48.2615629493,46.7892993499 134.96473108,0" fill="hsl(79.7095580958, 80.9854677072%, 30.2273078905%)" fill-opacity="0.971482051251"/>
    <polygon points="178.976053472,146.33716518 178.512385485,138.681690299 137.972479637,132.402945996 132.222607344,160.081724209 55.3907200796,172.020304885 116.3985011,201.957878503 109.252494607,223.773374673 120.882152805,299.896196649 147.400951811,189.412312809 210,104.091294879" fill="hsl(24.0170260208, 56.6080958119%, 30.5156213397%)" fill-opacity="0.925999928905"/>
    <polygon points="210,76.9630658867 208.548437898,57.6444044735 193.53038258,106.443108364 138.558868413,52.1775035096 135.62822481,144.740714063 194.281458294,130.408280104 198.682106184,195.692712766 210,137.503899334 205.298482017,125.557777455 204.053844297,124.888071629 210,130.633092481 210,54.5043957158" fill="hsl(50.4159945623, 80.8050070857%, 21.1072935615%)" fill-opacity="0.839431415661"/>
    <polygon points="62.8170978847,0 0,62.1386138025 5.53742550036,143.663971384 31.9042275855,157.403699089 84.3937796764,130.766226179 77.9921438462,104.974806463 110.276860349,139.419291061 97.707976023,82.6031220195 129.045646924,78.6289512735 118.299125871,27.3750337083" fill="hsl(47.1221864684, 84.8858592832%, 52.4798350157%)" fill-opacity="0.904134360186"/>
    <polygon points="210,198.763345945 210,203.061587423 210,110.770223313 210,154.946444615 210,175.474543709 181.218268611,123.258699979 154.051747179,195.635936229 77.9703682691,250.885339387 191.281927958,235.60778435 208.876286715,316.738732405 210,250.781068128 210,205.053697882" fill="hsl(53.052166861, 63.3549916112%, 50.0494527786%)" fill-opacity="0.971325389453"/>
    <polygon points="133.292758534,299.39696514 74.1849701439,219.25005107 31.7963164468,287.480681422 98.2723564897,323.010926172 131.923084179,349.692292614 147.817330691,348.783795701 210,420 186.393294261,356.618837869 188.250423339,310.021065313" fill="hsl(42.5606774686, 73.9271802775%, 40.4939677761%)" fill-opacity="0.831607578976"/>
      <polygon points="133.292758534,299.39696514 74.1849701439,219.25005107 31.7963164468,287.480681422 98.2723564897,323.010926172 131.923084179,349.692292614 147.817330691,348.783795701 210,420 186.393294261,356.618837869 188.250423339,310.021065313" fill="#ffffff" fill-opacity="0.5"/>
    <polygon points="210,2.44676451302 202.722373215,10.9350555445 168.370521029,0 151.205568302,0 46.5897858816,19.3646868908 93.1455997612,64.8389069389 77.2116462939,60.3832696082 60.9038279085,98.7876865224 125.728610952,164.893185187 151.715709958,183.276973831 133.943727729,81.4120024983 151.942395399,86.9445723776 210,94.1280821075 132.215895714,69.8414741159" fill="hsl(74.6295881403, 60.4417615051%, 40.7453130151%)" fill-opacity="0.945012476812"/>
</svg>
