<?xml version="1.0" encoding="UTF-8" standalone="no"?>
<!-- Created with Inkscape (http://www.inkscape.org/) -->

<svg
   xmlns:dc="http://purl.org/dc/elements/1.1/"
   xmlns:cc="http://creativecommons.org/ns#"
   xmlns:rdf="http://www.w3.org/1999/02/22-rdf-syntax-ns#"
   xmlns:svg="http://www.w3.org/2000/svg"
   xmlns="http://www.w3.org/2000/svg"
   xmlns:sodipodi="http://sodipodi.sourceforge.net/DTD/sodipodi-0.dtd"
   xmlns:inkscape="http://www.inkscape.org/namespaces/inkscape"
   width="297mm"
   height="420mm"
   viewBox="0 0 297 420"
   version="1.1"
   id="svg8"
   inkscape:version="0.92.1 r15371"
   sodipodi:docname="modified.svg">
  <defs
     id="defs2" />
  <sodipodi:namedview
     id="base"
     pagecolor="#ffffff"
     bordercolor="#666666"
     borderopacity="1.0"
     inkscape:pageopacity="0.0"
     inkscape:pageshadow="2"
     inkscape:zoom="0.24748737"
     inkscape:cx="609.98765"
     inkscape:cy="1992.2986"
     inkscape:document-units="mm"
     inkscape:current-layer="layer1"
     showgrid="false"
     inkscape:window-width="1280"
     inkscape:window-height="945"
     inkscape:window-x="0"
     inkscape:window-y="0"
     inkscape:window-maximized="1" />
  <metadata
     id="metadata5">
    <rdf:RDF>
      <cc:Work
         rdf:about="">
        <dc:format>image/svg+xml</dc:format>
        <dc:type
           rdf:resource="http://purl.org/dc/dcmitype/StillImage" />
        <dc:title></dc:title>
      </cc:Work>
    </rdf:RDF>
  </metadata>
  <g
     inkscape:label="Layer 1"
     inkscape:groupmode="layer"
     id="layer1"
     transform="translate(0,123)">
    <path
       style="fill:#000000;stroke-width:0.35277775"
       d="m 358.73267,-32.167367 -13.58194,-16.90427 -0.0965,5.9717 -0.0965,5.9717 h -10.7514 -10.75139 v -35.63055 -35.630563 h 10.23055 10.23056 v 3.61125 3.61125 l 4.85069,-4.82851 4.8507,-4.8285 13.68668,17.635063 13.68668,17.63507 -3.79193,5.36622 c -2.08559,2.95142 -5.18866,7.31214 -6.89572,9.69048 -1.70709,2.37834 -3.10377,4.48477 -3.10377,4.68095 0,0.19618 4.10157,5.63245 9.11458,12.08059 5.01301,6.44814 9.32402,12.05929 9.58003,12.46922 0.43406,0.695 0.004,1.25866 -6.38055,8.34774 -3.7653,4.18132 -6.92538,7.61433 -7.02239,7.62891 -0.097,0.0146 -6.28827,-7.5804 -13.75834,-16.87775 z m 18.10978,6.03369 4.16398,-4.17488 -8.89621,-11.25915 c -4.89292,-6.19252 -9.36311,-11.85557 -9.93376,-12.58454 l -1.03756,-1.32541 6.93589,-9.90816 c 3.81477,-5.44948 6.85673,-10.11451 6.75997,-10.36673 -0.16581,-0.43202 -20.64978,-27.355503 -21.55293,-28.328483 -0.33595,-0.36191 -1.72437,0.9469 -6.83401,6.442123 l -6.41237,6.8963 v -7.41226 -7.412253 h -6.35 -6.35 v 32.279163 32.27917 h 6.34482 6.34485 l 0.0933,-10.62091 0.0934,-10.6209 15.98172,20.1459 c 8.78991,11.08025 16.09492,20.14591 16.23328,20.14591 0.13836,0 2.12538,-1.8787 4.41561,-4.17489 z m -36.75016,-45.84108 c 2.90812,-3.45354 11.77427,-12.72465 11.96325,-12.50968 0.72546,0.82514 9.85213,13.14892 9.85213,13.30332 0,0.10242 -5.09411,0.18622 -11.32025,0.18622 h -11.32025 z m 13.3526,-3.95414 c -0.61256,-0.77342 -1.27836,-1.50794 -1.47952,-1.63228 -0.20119,-0.12433 -1.10031,0.50846 -1.99806,1.40622 l -1.6323,1.63228 h 3.11182 3.11181 z m -251.8872,13.75344 v -25.75278 h -9.348614 -9.348611 v -10.40694 -10.406943 h 35.651365 c 28.42271,0 35.59939,0.0894 35.39492,0.44097 -0.14106,0.24253 -3.43741,4.84628 -7.32522,10.230553 l -7.06876,9.78959 h -8.21782 -8.21783 v 25.92916 25.92917 h -10.75971 -10.75972 z m 17.63888,-4.40972 v -25.92917 h 8.62012 8.62012 l 3.08765,-3.96875 c 1.69821,-2.18281 3.86533,-4.960933 4.81581,-6.173613 l 1.72817,-2.20486 H 115.69917 85.32991 v 6.350003 6.35 h 10.230555 10.230555 v 25.75278 25.75277 h 6.70278 6.70277 z m -166.776614,21.2939 -6.791897,-8.49683 1.191067,-1.63604 c 0.65509,-0.89982 9.40855,-13.22478 19.452129,-27.38881 10.043579,-14.16403 18.287894,-25.788173 18.320699,-25.831443 0.164648,-0.21715 40.230951,53.964923 40.197271,54.359183 -0.02162,0.25304 -2.95849,4.29443 -6.526388,8.98088 l -6.48709,8.52082 -26.281942,-0.005 -26.281942,-0.005 z m 61.08284,-2.22254 c 2.866181,-3.96582 5.237624,-7.28952 5.269871,-7.38599 0.07272,-0.21756 -33.553771,-45.638663 -33.984745,-45.905023 -0.171503,-0.10599 -7.864756,10.379043 -17.096116,23.300073 l -16.78429,23.49279 5.352025,6.85437 5.352027,6.85436 h 23.339997 23.3399937 z m -48.822878,-5.70242 c 0,-0.1893 19.125712,-27.41559 19.749246,-28.11392 0.217869,-0.244 20.4674177,27.5789 20.4674177,28.12226 0,0.11256 -9.04875,0.20466 -20.1083317,0.20466 -11.059583,0 -20.108332,-0.0959 -20.108332,-0.213 z m 32.8083307,-3.4848 c 0,-0.15946 -11.7678577,-16.24873 -12.3442647,-16.87734 -0.14647,-0.15974 -2.697215,3.09464 -5.668324,7.23194 -2.97111,4.1373 -5.788198,8.03831 -6.260196,8.6689 l -0.858177,1.14653 h 12.56548 c 6.9110147,0 12.5654817,-0.0765 12.5654817,-0.17003 z m 37.6590253,12.15585 -5.909027,-7.73774 v -28.2296 -28.229593 h 25.399997 25.399999 v 9.701383 9.70139 H 64.8688 49.699356 v 16.22778 16.22778 h 15.522222 15.522221 v 10.05416 10.05417 l -19.84375,-0.016 -19.843747,-0.016 z m 41.363192,-2.63721 v -6.52639 H 60.988244 45.466022 v -19.75556 -19.75555 H 60.635466 75.80491 v -6.35 -6.350003 H 54.638244 33.47158 v 25.741253 25.74125 l 4.850694,6.88505 4.850694,6.88505 16.668748,0.006 16.66875,0.006 z m 61.117814,1.89112 -6.79191,-8.49683 1.19108,-1.63604 c 0.65509,-0.89982 9.40854,-13.22478 19.45213,-27.38881 10.04358,-14.16403 18.28789,-25.788173 18.3207,-25.831443 0.16465,-0.21715 40.23095,53.964923 40.19727,54.359183 -0.0216,0.25304 -2.95849,4.29443 -6.52639,8.98088 l -6.48709,8.52082 -26.28194,-0.005 -26.28195,-0.005 -6.7919,-8.49684 z m 61.08284,-2.22254 c 2.86618,-3.96582 5.23763,-7.28952 5.26987,-7.38599 0.0727,-0.21756 -33.55377,-45.638663 -33.98474,-45.905023 -0.17151,-0.10599 -7.86476,10.379043 -17.09612,23.300073 l -16.7843,23.49279 5.35203,6.85437 5.35204,6.85436 h 23.33999 23.34 z m -48.82288,-5.70242 c 0,-0.1893 19.12572,-27.41559 19.74925,-28.11392 0.21787,-0.244 20.46742,27.5789 20.46742,28.12226 0,0.11256 -9.04875,0.20466 -20.10833,0.20466 -11.05959,0 -20.10834,-0.0959 -20.10834,-0.213 z m 32.80833,-3.4848 c 0,-0.15946 -11.76785,-16.24873 -12.34426,-16.87734 -0.14647,-0.15974 -2.69722,3.09464 -5.66832,7.23194 -2.97111,4.1373 -5.7882,8.03831 -6.2602,8.6689 l -0.85818,1.14653 h 12.56548 c 6.91102,0 12.56548,-0.0765 12.56548,-0.17003 z m 32.10278,-16.05775 v -35.983333 h 14.05195 14.05195 l 16.72791,12.543573 c 9.20035,6.89896 16.84484,12.65945 16.98775,12.80109 0.14292,0.14164 -2.36527,2.47422 -5.57375,5.18351 l -5.8336,4.92599 3.63348,3.34914 c 7.99527,7.3696 7.95333,7.32336 7.16125,7.89573 -0.38805,0.28041 -8.00249,6.08035 -16.92096,12.88874 l -16.2154,12.37889 h -14.03529 -14.03529 z m 40.7108,21.60764 14.68883,-11.2007 -3.62273,-3.34816 c -1.9925,-1.8415 -4.49586,-4.18986 -5.56301,-5.21858 l -1.94028,-1.87041 5.55804,-5.40094 5.55804,-5.40093 -14.37749,-10.97525 -14.37748,-10.975253 -11.37708,-0.0129 -11.37708,-0.0129 v 32.808333 32.80833 h 11.0707 11.0707 z m -25.18858,-8.37848 v -7.58472 l 8.55486,1.9e-4 8.55486,1.9e-4 2.56749,2.80724 2.56748,2.80723 -6.35002,4.7773 -6.35002,4.7773 h -4.77232 -4.77233 z m 12.92247,1.51116 4.3607,-3.25134 -1.48309,-1.51116 -1.48309,-1.51116 h -5.92377 -5.92377 v 4.7625 4.7625 h 3.04615 3.04616 z m -12.92247,-29.20421 v -7.76111 h 4.90071 4.90071 l 6.12359,4.64314 c 3.36798,2.55372 6.18466,4.69176 6.25929,4.7512 0.0746,0.0594 -1.00488,1.46252 -2.39892,3.11797 l -2.53462,3.00991 h -8.62538 -8.62538 z m 15.65756,3.17398 c 0.70168,-0.77667 1.26773,-1.53073 1.2579,-1.67569 -0.01,-0.14496 -1.65905,-1.49388 -3.66492,-2.9976 l -3.64706,-2.73402 h -3.56702 -3.56701 v 4.40972 4.40972 h 5.95617 5.95617 z m 39.96211,39.52459 -5.878,-7.74866 v -28.23468 -28.234673 h 20.28472 20.28472 v 9.701383 9.70139 h -10.23056 -10.23055 v 2.64584 2.64583 h 10.05416 10.05417 v 9.525 9.525 h -10.05417 -10.05416 v 4.05694 4.05695 h 10.58333 10.58333 v 10.05416 10.05417 h -14.75948 -14.75951 z m 31.16366,-2.65829 v -6.52639 h -10.40694 -10.40695 v -7.58472 -7.58473 h 10.05417 10.05416 v -5.82083 -5.82083 h -10.23055 -10.23056 v -6.35 -6.35 h 10.23056 10.23055 v -6.35 -6.350003 h -16.05138 -16.05139 v 25.761593 25.76158 l 3.23167,4.6655 c 1.77742,2.56602 3.92856,5.65768 4.78032,6.87035 l 1.54866,2.20486 h 11.62383 11.62385 z"
       id="path91"
       inkscape:connector-curvature="0" />
  </g>
</svg>
